G75*
%MOIN*%
%OFA0B0*%
%FSLAX25Y25*%
%IPPOS*%
%LPD*%
%AMOC8*
5,1,8,0,0,1.08239X$1,22.5*
%
%ADD10C,0.00000*%
%ADD11C,0.06000*%
%ADD12R,0.04331X0.03937*%
%ADD13R,0.10000X0.05512*%
%ADD14C,0.01000*%
%ADD15C,0.01600*%
%ADD16C,0.00984*%
D10*
X0012233Y0001485D02*
X0130343Y0001485D01*
X0124084Y0011485D02*
X0124086Y0011643D01*
X0124092Y0011801D01*
X0124102Y0011959D01*
X0124116Y0012117D01*
X0124134Y0012274D01*
X0124155Y0012431D01*
X0124181Y0012587D01*
X0124211Y0012743D01*
X0124244Y0012898D01*
X0124282Y0013051D01*
X0124323Y0013204D01*
X0124368Y0013356D01*
X0124417Y0013507D01*
X0124470Y0013656D01*
X0124526Y0013804D01*
X0124586Y0013950D01*
X0124650Y0014095D01*
X0124718Y0014238D01*
X0124789Y0014380D01*
X0124863Y0014520D01*
X0124941Y0014657D01*
X0125023Y0014793D01*
X0125107Y0014927D01*
X0125196Y0015058D01*
X0125287Y0015187D01*
X0125382Y0015314D01*
X0125479Y0015439D01*
X0125580Y0015561D01*
X0125684Y0015680D01*
X0125791Y0015797D01*
X0125901Y0015911D01*
X0126014Y0016022D01*
X0126129Y0016131D01*
X0126247Y0016236D01*
X0126368Y0016338D01*
X0126491Y0016438D01*
X0126617Y0016534D01*
X0126745Y0016627D01*
X0126875Y0016717D01*
X0127008Y0016803D01*
X0127143Y0016887D01*
X0127279Y0016966D01*
X0127418Y0017043D01*
X0127559Y0017115D01*
X0127701Y0017185D01*
X0127845Y0017250D01*
X0127991Y0017312D01*
X0128138Y0017370D01*
X0128287Y0017425D01*
X0128437Y0017476D01*
X0128588Y0017523D01*
X0128740Y0017566D01*
X0128893Y0017605D01*
X0129048Y0017641D01*
X0129203Y0017672D01*
X0129359Y0017700D01*
X0129515Y0017724D01*
X0129672Y0017744D01*
X0129830Y0017760D01*
X0129987Y0017772D01*
X0130146Y0017780D01*
X0130304Y0017784D01*
X0130462Y0017784D01*
X0130620Y0017780D01*
X0130779Y0017772D01*
X0130936Y0017760D01*
X0131094Y0017744D01*
X0131251Y0017724D01*
X0131407Y0017700D01*
X0131563Y0017672D01*
X0131718Y0017641D01*
X0131873Y0017605D01*
X0132026Y0017566D01*
X0132178Y0017523D01*
X0132329Y0017476D01*
X0132479Y0017425D01*
X0132628Y0017370D01*
X0132775Y0017312D01*
X0132921Y0017250D01*
X0133065Y0017185D01*
X0133207Y0017115D01*
X0133348Y0017043D01*
X0133487Y0016966D01*
X0133623Y0016887D01*
X0133758Y0016803D01*
X0133891Y0016717D01*
X0134021Y0016627D01*
X0134149Y0016534D01*
X0134275Y0016438D01*
X0134398Y0016338D01*
X0134519Y0016236D01*
X0134637Y0016131D01*
X0134752Y0016022D01*
X0134865Y0015911D01*
X0134975Y0015797D01*
X0135082Y0015680D01*
X0135186Y0015561D01*
X0135287Y0015439D01*
X0135384Y0015314D01*
X0135479Y0015187D01*
X0135570Y0015058D01*
X0135659Y0014927D01*
X0135743Y0014793D01*
X0135825Y0014657D01*
X0135903Y0014520D01*
X0135977Y0014380D01*
X0136048Y0014238D01*
X0136116Y0014095D01*
X0136180Y0013950D01*
X0136240Y0013804D01*
X0136296Y0013656D01*
X0136349Y0013507D01*
X0136398Y0013356D01*
X0136443Y0013204D01*
X0136484Y0013051D01*
X0136522Y0012898D01*
X0136555Y0012743D01*
X0136585Y0012587D01*
X0136611Y0012431D01*
X0136632Y0012274D01*
X0136650Y0012117D01*
X0136664Y0011959D01*
X0136674Y0011801D01*
X0136680Y0011643D01*
X0136682Y0011485D01*
X0136680Y0011327D01*
X0136674Y0011169D01*
X0136664Y0011011D01*
X0136650Y0010853D01*
X0136632Y0010696D01*
X0136611Y0010539D01*
X0136585Y0010383D01*
X0136555Y0010227D01*
X0136522Y0010072D01*
X0136484Y0009919D01*
X0136443Y0009766D01*
X0136398Y0009614D01*
X0136349Y0009463D01*
X0136296Y0009314D01*
X0136240Y0009166D01*
X0136180Y0009020D01*
X0136116Y0008875D01*
X0136048Y0008732D01*
X0135977Y0008590D01*
X0135903Y0008450D01*
X0135825Y0008313D01*
X0135743Y0008177D01*
X0135659Y0008043D01*
X0135570Y0007912D01*
X0135479Y0007783D01*
X0135384Y0007656D01*
X0135287Y0007531D01*
X0135186Y0007409D01*
X0135082Y0007290D01*
X0134975Y0007173D01*
X0134865Y0007059D01*
X0134752Y0006948D01*
X0134637Y0006839D01*
X0134519Y0006734D01*
X0134398Y0006632D01*
X0134275Y0006532D01*
X0134149Y0006436D01*
X0134021Y0006343D01*
X0133891Y0006253D01*
X0133758Y0006167D01*
X0133623Y0006083D01*
X0133487Y0006004D01*
X0133348Y0005927D01*
X0133207Y0005855D01*
X0133065Y0005785D01*
X0132921Y0005720D01*
X0132775Y0005658D01*
X0132628Y0005600D01*
X0132479Y0005545D01*
X0132329Y0005494D01*
X0132178Y0005447D01*
X0132026Y0005404D01*
X0131873Y0005365D01*
X0131718Y0005329D01*
X0131563Y0005298D01*
X0131407Y0005270D01*
X0131251Y0005246D01*
X0131094Y0005226D01*
X0130936Y0005210D01*
X0130779Y0005198D01*
X0130620Y0005190D01*
X0130462Y0005186D01*
X0130304Y0005186D01*
X0130146Y0005190D01*
X0129987Y0005198D01*
X0129830Y0005210D01*
X0129672Y0005226D01*
X0129515Y0005246D01*
X0129359Y0005270D01*
X0129203Y0005298D01*
X0129048Y0005329D01*
X0128893Y0005365D01*
X0128740Y0005404D01*
X0128588Y0005447D01*
X0128437Y0005494D01*
X0128287Y0005545D01*
X0128138Y0005600D01*
X0127991Y0005658D01*
X0127845Y0005720D01*
X0127701Y0005785D01*
X0127559Y0005855D01*
X0127418Y0005927D01*
X0127279Y0006004D01*
X0127143Y0006083D01*
X0127008Y0006167D01*
X0126875Y0006253D01*
X0126745Y0006343D01*
X0126617Y0006436D01*
X0126491Y0006532D01*
X0126368Y0006632D01*
X0126247Y0006734D01*
X0126129Y0006839D01*
X0126014Y0006948D01*
X0125901Y0007059D01*
X0125791Y0007173D01*
X0125684Y0007290D01*
X0125580Y0007409D01*
X0125479Y0007531D01*
X0125382Y0007656D01*
X0125287Y0007783D01*
X0125196Y0007912D01*
X0125107Y0008043D01*
X0125023Y0008177D01*
X0124941Y0008313D01*
X0124863Y0008450D01*
X0124789Y0008590D01*
X0124718Y0008732D01*
X0124650Y0008875D01*
X0124586Y0009020D01*
X0124526Y0009166D01*
X0124470Y0009314D01*
X0124417Y0009463D01*
X0124368Y0009614D01*
X0124323Y0009766D01*
X0124282Y0009919D01*
X0124244Y0010072D01*
X0124211Y0010227D01*
X0124181Y0010383D01*
X0124155Y0010539D01*
X0124134Y0010696D01*
X0124116Y0010853D01*
X0124102Y0011011D01*
X0124092Y0011169D01*
X0124086Y0011327D01*
X0124084Y0011485D01*
X0130343Y0001485D02*
X0130590Y0001488D01*
X0130838Y0001497D01*
X0131084Y0001512D01*
X0131331Y0001533D01*
X0131577Y0001560D01*
X0131822Y0001592D01*
X0132066Y0001631D01*
X0132310Y0001676D01*
X0132552Y0001726D01*
X0132793Y0001782D01*
X0133032Y0001845D01*
X0133270Y0001912D01*
X0133506Y0001986D01*
X0133740Y0002065D01*
X0133973Y0002150D01*
X0134203Y0002241D01*
X0134431Y0002337D01*
X0134656Y0002438D01*
X0134880Y0002545D01*
X0135100Y0002657D01*
X0135318Y0002775D01*
X0135532Y0002898D01*
X0135744Y0003026D01*
X0135952Y0003159D01*
X0136158Y0003297D01*
X0136360Y0003440D01*
X0136558Y0003588D01*
X0136753Y0003740D01*
X0136944Y0003897D01*
X0137131Y0004059D01*
X0137314Y0004225D01*
X0137493Y0004396D01*
X0137668Y0004571D01*
X0137839Y0004750D01*
X0138005Y0004933D01*
X0138167Y0005120D01*
X0138324Y0005311D01*
X0138476Y0005506D01*
X0138624Y0005704D01*
X0138767Y0005906D01*
X0138905Y0006112D01*
X0139038Y0006320D01*
X0139166Y0006532D01*
X0139289Y0006746D01*
X0139407Y0006964D01*
X0139519Y0007184D01*
X0139626Y0007408D01*
X0139727Y0007633D01*
X0139823Y0007861D01*
X0139914Y0008091D01*
X0139999Y0008324D01*
X0140078Y0008558D01*
X0140152Y0008794D01*
X0140219Y0009032D01*
X0140282Y0009271D01*
X0140338Y0009512D01*
X0140388Y0009754D01*
X0140433Y0009998D01*
X0140472Y0010242D01*
X0140504Y0010487D01*
X0140531Y0010733D01*
X0140552Y0010980D01*
X0140567Y0011226D01*
X0140576Y0011474D01*
X0140579Y0011721D01*
X0140580Y0011721D02*
X0140580Y0092036D01*
X0140579Y0092036D02*
X0140576Y0092266D01*
X0140568Y0092496D01*
X0140554Y0092726D01*
X0140534Y0092955D01*
X0140509Y0093184D01*
X0140479Y0093412D01*
X0140442Y0093639D01*
X0140401Y0093865D01*
X0140354Y0094091D01*
X0140301Y0094315D01*
X0140243Y0094537D01*
X0140180Y0094758D01*
X0140111Y0094978D01*
X0140037Y0095196D01*
X0139957Y0095412D01*
X0139873Y0095626D01*
X0139783Y0095838D01*
X0139688Y0096047D01*
X0139588Y0096255D01*
X0139484Y0096460D01*
X0139374Y0096662D01*
X0139259Y0096861D01*
X0139139Y0097058D01*
X0139015Y0097251D01*
X0138886Y0097442D01*
X0138753Y0097629D01*
X0138615Y0097814D01*
X0138472Y0097994D01*
X0138325Y0098171D01*
X0138174Y0098345D01*
X0138019Y0098515D01*
X0137860Y0098681D01*
X0137697Y0098843D01*
X0137529Y0099001D01*
X0137358Y0099155D01*
X0137184Y0099305D01*
X0137006Y0099451D01*
X0136824Y0099592D01*
X0136639Y0099728D01*
X0136450Y0099861D01*
X0136259Y0099988D01*
X0136064Y0100111D01*
X0135867Y0100229D01*
X0135667Y0100342D01*
X0135464Y0100451D01*
X0135258Y0100554D01*
X0135050Y0100653D01*
X0134840Y0100746D01*
X0134627Y0100834D01*
X0134413Y0100917D01*
X0134196Y0100995D01*
X0133978Y0101068D01*
X0133758Y0101135D01*
X0133536Y0101197D01*
X0133313Y0101253D01*
X0133089Y0101304D01*
X0132863Y0101350D01*
X0132636Y0101390D01*
X0132409Y0101424D01*
X0132181Y0101453D01*
X0131952Y0101477D01*
X0131722Y0101495D01*
X0131493Y0101507D01*
X0131263Y0101514D01*
X0131032Y0101515D01*
X0130802Y0101510D01*
X0130572Y0101500D01*
X0130343Y0101485D01*
X0011446Y0101485D01*
X0005501Y0092115D02*
X0005503Y0092273D01*
X0005509Y0092431D01*
X0005519Y0092589D01*
X0005533Y0092747D01*
X0005551Y0092904D01*
X0005572Y0093061D01*
X0005598Y0093217D01*
X0005628Y0093373D01*
X0005661Y0093528D01*
X0005699Y0093681D01*
X0005740Y0093834D01*
X0005785Y0093986D01*
X0005834Y0094137D01*
X0005887Y0094286D01*
X0005943Y0094434D01*
X0006003Y0094580D01*
X0006067Y0094725D01*
X0006135Y0094868D01*
X0006206Y0095010D01*
X0006280Y0095150D01*
X0006358Y0095287D01*
X0006440Y0095423D01*
X0006524Y0095557D01*
X0006613Y0095688D01*
X0006704Y0095817D01*
X0006799Y0095944D01*
X0006896Y0096069D01*
X0006997Y0096191D01*
X0007101Y0096310D01*
X0007208Y0096427D01*
X0007318Y0096541D01*
X0007431Y0096652D01*
X0007546Y0096761D01*
X0007664Y0096866D01*
X0007785Y0096968D01*
X0007908Y0097068D01*
X0008034Y0097164D01*
X0008162Y0097257D01*
X0008292Y0097347D01*
X0008425Y0097433D01*
X0008560Y0097517D01*
X0008696Y0097596D01*
X0008835Y0097673D01*
X0008976Y0097745D01*
X0009118Y0097815D01*
X0009262Y0097880D01*
X0009408Y0097942D01*
X0009555Y0098000D01*
X0009704Y0098055D01*
X0009854Y0098106D01*
X0010005Y0098153D01*
X0010157Y0098196D01*
X0010310Y0098235D01*
X0010465Y0098271D01*
X0010620Y0098302D01*
X0010776Y0098330D01*
X0010932Y0098354D01*
X0011089Y0098374D01*
X0011247Y0098390D01*
X0011404Y0098402D01*
X0011563Y0098410D01*
X0011721Y0098414D01*
X0011879Y0098414D01*
X0012037Y0098410D01*
X0012196Y0098402D01*
X0012353Y0098390D01*
X0012511Y0098374D01*
X0012668Y0098354D01*
X0012824Y0098330D01*
X0012980Y0098302D01*
X0013135Y0098271D01*
X0013290Y0098235D01*
X0013443Y0098196D01*
X0013595Y0098153D01*
X0013746Y0098106D01*
X0013896Y0098055D01*
X0014045Y0098000D01*
X0014192Y0097942D01*
X0014338Y0097880D01*
X0014482Y0097815D01*
X0014624Y0097745D01*
X0014765Y0097673D01*
X0014904Y0097596D01*
X0015040Y0097517D01*
X0015175Y0097433D01*
X0015308Y0097347D01*
X0015438Y0097257D01*
X0015566Y0097164D01*
X0015692Y0097068D01*
X0015815Y0096968D01*
X0015936Y0096866D01*
X0016054Y0096761D01*
X0016169Y0096652D01*
X0016282Y0096541D01*
X0016392Y0096427D01*
X0016499Y0096310D01*
X0016603Y0096191D01*
X0016704Y0096069D01*
X0016801Y0095944D01*
X0016896Y0095817D01*
X0016987Y0095688D01*
X0017076Y0095557D01*
X0017160Y0095423D01*
X0017242Y0095287D01*
X0017320Y0095150D01*
X0017394Y0095010D01*
X0017465Y0094868D01*
X0017533Y0094725D01*
X0017597Y0094580D01*
X0017657Y0094434D01*
X0017713Y0094286D01*
X0017766Y0094137D01*
X0017815Y0093986D01*
X0017860Y0093834D01*
X0017901Y0093681D01*
X0017939Y0093528D01*
X0017972Y0093373D01*
X0018002Y0093217D01*
X0018028Y0093061D01*
X0018049Y0092904D01*
X0018067Y0092747D01*
X0018081Y0092589D01*
X0018091Y0092431D01*
X0018097Y0092273D01*
X0018099Y0092115D01*
X0018097Y0091957D01*
X0018091Y0091799D01*
X0018081Y0091641D01*
X0018067Y0091483D01*
X0018049Y0091326D01*
X0018028Y0091169D01*
X0018002Y0091013D01*
X0017972Y0090857D01*
X0017939Y0090702D01*
X0017901Y0090549D01*
X0017860Y0090396D01*
X0017815Y0090244D01*
X0017766Y0090093D01*
X0017713Y0089944D01*
X0017657Y0089796D01*
X0017597Y0089650D01*
X0017533Y0089505D01*
X0017465Y0089362D01*
X0017394Y0089220D01*
X0017320Y0089080D01*
X0017242Y0088943D01*
X0017160Y0088807D01*
X0017076Y0088673D01*
X0016987Y0088542D01*
X0016896Y0088413D01*
X0016801Y0088286D01*
X0016704Y0088161D01*
X0016603Y0088039D01*
X0016499Y0087920D01*
X0016392Y0087803D01*
X0016282Y0087689D01*
X0016169Y0087578D01*
X0016054Y0087469D01*
X0015936Y0087364D01*
X0015815Y0087262D01*
X0015692Y0087162D01*
X0015566Y0087066D01*
X0015438Y0086973D01*
X0015308Y0086883D01*
X0015175Y0086797D01*
X0015040Y0086713D01*
X0014904Y0086634D01*
X0014765Y0086557D01*
X0014624Y0086485D01*
X0014482Y0086415D01*
X0014338Y0086350D01*
X0014192Y0086288D01*
X0014045Y0086230D01*
X0013896Y0086175D01*
X0013746Y0086124D01*
X0013595Y0086077D01*
X0013443Y0086034D01*
X0013290Y0085995D01*
X0013135Y0085959D01*
X0012980Y0085928D01*
X0012824Y0085900D01*
X0012668Y0085876D01*
X0012511Y0085856D01*
X0012353Y0085840D01*
X0012196Y0085828D01*
X0012037Y0085820D01*
X0011879Y0085816D01*
X0011721Y0085816D01*
X0011563Y0085820D01*
X0011404Y0085828D01*
X0011247Y0085840D01*
X0011089Y0085856D01*
X0010932Y0085876D01*
X0010776Y0085900D01*
X0010620Y0085928D01*
X0010465Y0085959D01*
X0010310Y0085995D01*
X0010157Y0086034D01*
X0010005Y0086077D01*
X0009854Y0086124D01*
X0009704Y0086175D01*
X0009555Y0086230D01*
X0009408Y0086288D01*
X0009262Y0086350D01*
X0009118Y0086415D01*
X0008976Y0086485D01*
X0008835Y0086557D01*
X0008696Y0086634D01*
X0008560Y0086713D01*
X0008425Y0086797D01*
X0008292Y0086883D01*
X0008162Y0086973D01*
X0008034Y0087066D01*
X0007908Y0087162D01*
X0007785Y0087262D01*
X0007664Y0087364D01*
X0007546Y0087469D01*
X0007431Y0087578D01*
X0007318Y0087689D01*
X0007208Y0087803D01*
X0007101Y0087920D01*
X0006997Y0088039D01*
X0006896Y0088161D01*
X0006799Y0088286D01*
X0006704Y0088413D01*
X0006613Y0088542D01*
X0006524Y0088673D01*
X0006440Y0088807D01*
X0006358Y0088943D01*
X0006280Y0089080D01*
X0006206Y0089220D01*
X0006135Y0089362D01*
X0006067Y0089505D01*
X0006003Y0089650D01*
X0005943Y0089796D01*
X0005887Y0089944D01*
X0005834Y0090093D01*
X0005785Y0090244D01*
X0005740Y0090396D01*
X0005699Y0090549D01*
X0005661Y0090702D01*
X0005628Y0090857D01*
X0005598Y0091013D01*
X0005572Y0091169D01*
X0005551Y0091326D01*
X0005533Y0091483D01*
X0005519Y0091641D01*
X0005509Y0091799D01*
X0005503Y0091957D01*
X0005501Y0092115D01*
X0001997Y0092036D02*
X0001997Y0011721D01*
X0005501Y0011485D02*
X0005503Y0011643D01*
X0005509Y0011801D01*
X0005519Y0011959D01*
X0005533Y0012117D01*
X0005551Y0012274D01*
X0005572Y0012431D01*
X0005598Y0012587D01*
X0005628Y0012743D01*
X0005661Y0012898D01*
X0005699Y0013051D01*
X0005740Y0013204D01*
X0005785Y0013356D01*
X0005834Y0013507D01*
X0005887Y0013656D01*
X0005943Y0013804D01*
X0006003Y0013950D01*
X0006067Y0014095D01*
X0006135Y0014238D01*
X0006206Y0014380D01*
X0006280Y0014520D01*
X0006358Y0014657D01*
X0006440Y0014793D01*
X0006524Y0014927D01*
X0006613Y0015058D01*
X0006704Y0015187D01*
X0006799Y0015314D01*
X0006896Y0015439D01*
X0006997Y0015561D01*
X0007101Y0015680D01*
X0007208Y0015797D01*
X0007318Y0015911D01*
X0007431Y0016022D01*
X0007546Y0016131D01*
X0007664Y0016236D01*
X0007785Y0016338D01*
X0007908Y0016438D01*
X0008034Y0016534D01*
X0008162Y0016627D01*
X0008292Y0016717D01*
X0008425Y0016803D01*
X0008560Y0016887D01*
X0008696Y0016966D01*
X0008835Y0017043D01*
X0008976Y0017115D01*
X0009118Y0017185D01*
X0009262Y0017250D01*
X0009408Y0017312D01*
X0009555Y0017370D01*
X0009704Y0017425D01*
X0009854Y0017476D01*
X0010005Y0017523D01*
X0010157Y0017566D01*
X0010310Y0017605D01*
X0010465Y0017641D01*
X0010620Y0017672D01*
X0010776Y0017700D01*
X0010932Y0017724D01*
X0011089Y0017744D01*
X0011247Y0017760D01*
X0011404Y0017772D01*
X0011563Y0017780D01*
X0011721Y0017784D01*
X0011879Y0017784D01*
X0012037Y0017780D01*
X0012196Y0017772D01*
X0012353Y0017760D01*
X0012511Y0017744D01*
X0012668Y0017724D01*
X0012824Y0017700D01*
X0012980Y0017672D01*
X0013135Y0017641D01*
X0013290Y0017605D01*
X0013443Y0017566D01*
X0013595Y0017523D01*
X0013746Y0017476D01*
X0013896Y0017425D01*
X0014045Y0017370D01*
X0014192Y0017312D01*
X0014338Y0017250D01*
X0014482Y0017185D01*
X0014624Y0017115D01*
X0014765Y0017043D01*
X0014904Y0016966D01*
X0015040Y0016887D01*
X0015175Y0016803D01*
X0015308Y0016717D01*
X0015438Y0016627D01*
X0015566Y0016534D01*
X0015692Y0016438D01*
X0015815Y0016338D01*
X0015936Y0016236D01*
X0016054Y0016131D01*
X0016169Y0016022D01*
X0016282Y0015911D01*
X0016392Y0015797D01*
X0016499Y0015680D01*
X0016603Y0015561D01*
X0016704Y0015439D01*
X0016801Y0015314D01*
X0016896Y0015187D01*
X0016987Y0015058D01*
X0017076Y0014927D01*
X0017160Y0014793D01*
X0017242Y0014657D01*
X0017320Y0014520D01*
X0017394Y0014380D01*
X0017465Y0014238D01*
X0017533Y0014095D01*
X0017597Y0013950D01*
X0017657Y0013804D01*
X0017713Y0013656D01*
X0017766Y0013507D01*
X0017815Y0013356D01*
X0017860Y0013204D01*
X0017901Y0013051D01*
X0017939Y0012898D01*
X0017972Y0012743D01*
X0018002Y0012587D01*
X0018028Y0012431D01*
X0018049Y0012274D01*
X0018067Y0012117D01*
X0018081Y0011959D01*
X0018091Y0011801D01*
X0018097Y0011643D01*
X0018099Y0011485D01*
X0018097Y0011327D01*
X0018091Y0011169D01*
X0018081Y0011011D01*
X0018067Y0010853D01*
X0018049Y0010696D01*
X0018028Y0010539D01*
X0018002Y0010383D01*
X0017972Y0010227D01*
X0017939Y0010072D01*
X0017901Y0009919D01*
X0017860Y0009766D01*
X0017815Y0009614D01*
X0017766Y0009463D01*
X0017713Y0009314D01*
X0017657Y0009166D01*
X0017597Y0009020D01*
X0017533Y0008875D01*
X0017465Y0008732D01*
X0017394Y0008590D01*
X0017320Y0008450D01*
X0017242Y0008313D01*
X0017160Y0008177D01*
X0017076Y0008043D01*
X0016987Y0007912D01*
X0016896Y0007783D01*
X0016801Y0007656D01*
X0016704Y0007531D01*
X0016603Y0007409D01*
X0016499Y0007290D01*
X0016392Y0007173D01*
X0016282Y0007059D01*
X0016169Y0006948D01*
X0016054Y0006839D01*
X0015936Y0006734D01*
X0015815Y0006632D01*
X0015692Y0006532D01*
X0015566Y0006436D01*
X0015438Y0006343D01*
X0015308Y0006253D01*
X0015175Y0006167D01*
X0015040Y0006083D01*
X0014904Y0006004D01*
X0014765Y0005927D01*
X0014624Y0005855D01*
X0014482Y0005785D01*
X0014338Y0005720D01*
X0014192Y0005658D01*
X0014045Y0005600D01*
X0013896Y0005545D01*
X0013746Y0005494D01*
X0013595Y0005447D01*
X0013443Y0005404D01*
X0013290Y0005365D01*
X0013135Y0005329D01*
X0012980Y0005298D01*
X0012824Y0005270D01*
X0012668Y0005246D01*
X0012511Y0005226D01*
X0012353Y0005210D01*
X0012196Y0005198D01*
X0012037Y0005190D01*
X0011879Y0005186D01*
X0011721Y0005186D01*
X0011563Y0005190D01*
X0011404Y0005198D01*
X0011247Y0005210D01*
X0011089Y0005226D01*
X0010932Y0005246D01*
X0010776Y0005270D01*
X0010620Y0005298D01*
X0010465Y0005329D01*
X0010310Y0005365D01*
X0010157Y0005404D01*
X0010005Y0005447D01*
X0009854Y0005494D01*
X0009704Y0005545D01*
X0009555Y0005600D01*
X0009408Y0005658D01*
X0009262Y0005720D01*
X0009118Y0005785D01*
X0008976Y0005855D01*
X0008835Y0005927D01*
X0008696Y0006004D01*
X0008560Y0006083D01*
X0008425Y0006167D01*
X0008292Y0006253D01*
X0008162Y0006343D01*
X0008034Y0006436D01*
X0007908Y0006532D01*
X0007785Y0006632D01*
X0007664Y0006734D01*
X0007546Y0006839D01*
X0007431Y0006948D01*
X0007318Y0007059D01*
X0007208Y0007173D01*
X0007101Y0007290D01*
X0006997Y0007409D01*
X0006896Y0007531D01*
X0006799Y0007656D01*
X0006704Y0007783D01*
X0006613Y0007912D01*
X0006524Y0008043D01*
X0006440Y0008177D01*
X0006358Y0008313D01*
X0006280Y0008450D01*
X0006206Y0008590D01*
X0006135Y0008732D01*
X0006067Y0008875D01*
X0006003Y0009020D01*
X0005943Y0009166D01*
X0005887Y0009314D01*
X0005834Y0009463D01*
X0005785Y0009614D01*
X0005740Y0009766D01*
X0005699Y0009919D01*
X0005661Y0010072D01*
X0005628Y0010227D01*
X0005598Y0010383D01*
X0005572Y0010539D01*
X0005551Y0010696D01*
X0005533Y0010853D01*
X0005519Y0011011D01*
X0005509Y0011169D01*
X0005503Y0011327D01*
X0005501Y0011485D01*
X0001997Y0011721D02*
X0002000Y0011474D01*
X0002009Y0011226D01*
X0002024Y0010980D01*
X0002045Y0010733D01*
X0002072Y0010487D01*
X0002104Y0010242D01*
X0002143Y0009998D01*
X0002188Y0009754D01*
X0002238Y0009512D01*
X0002294Y0009271D01*
X0002357Y0009032D01*
X0002424Y0008794D01*
X0002498Y0008558D01*
X0002577Y0008324D01*
X0002662Y0008091D01*
X0002753Y0007861D01*
X0002849Y0007633D01*
X0002950Y0007408D01*
X0003057Y0007184D01*
X0003169Y0006964D01*
X0003287Y0006746D01*
X0003410Y0006532D01*
X0003538Y0006320D01*
X0003671Y0006112D01*
X0003809Y0005906D01*
X0003952Y0005704D01*
X0004100Y0005506D01*
X0004252Y0005311D01*
X0004409Y0005120D01*
X0004571Y0004933D01*
X0004737Y0004750D01*
X0004908Y0004571D01*
X0005083Y0004396D01*
X0005262Y0004225D01*
X0005445Y0004059D01*
X0005632Y0003897D01*
X0005823Y0003740D01*
X0006018Y0003588D01*
X0006216Y0003440D01*
X0006418Y0003297D01*
X0006624Y0003159D01*
X0006832Y0003026D01*
X0007044Y0002898D01*
X0007258Y0002775D01*
X0007476Y0002657D01*
X0007696Y0002545D01*
X0007920Y0002438D01*
X0008145Y0002337D01*
X0008373Y0002241D01*
X0008603Y0002150D01*
X0008836Y0002065D01*
X0009070Y0001986D01*
X0009306Y0001912D01*
X0009544Y0001845D01*
X0009783Y0001782D01*
X0010024Y0001726D01*
X0010266Y0001676D01*
X0010510Y0001631D01*
X0010754Y0001592D01*
X0010999Y0001560D01*
X0011245Y0001533D01*
X0011492Y0001512D01*
X0011738Y0001497D01*
X0011986Y0001488D01*
X0012233Y0001485D01*
X0001997Y0092036D02*
X0002000Y0092264D01*
X0002008Y0092493D01*
X0002022Y0092720D01*
X0002041Y0092948D01*
X0002066Y0093175D01*
X0002096Y0093401D01*
X0002132Y0093627D01*
X0002173Y0093851D01*
X0002220Y0094075D01*
X0002272Y0094297D01*
X0002329Y0094518D01*
X0002392Y0094738D01*
X0002459Y0094956D01*
X0002533Y0095172D01*
X0002611Y0095387D01*
X0002695Y0095599D01*
X0002783Y0095810D01*
X0002877Y0096018D01*
X0002976Y0096224D01*
X0003079Y0096427D01*
X0003188Y0096628D01*
X0003301Y0096826D01*
X0003419Y0097022D01*
X0003542Y0097214D01*
X0003670Y0097404D01*
X0003802Y0097590D01*
X0003938Y0097773D01*
X0004079Y0097953D01*
X0004224Y0098129D01*
X0004373Y0098302D01*
X0004527Y0098471D01*
X0004684Y0098636D01*
X0004846Y0098798D01*
X0005011Y0098955D01*
X0005180Y0099109D01*
X0005353Y0099258D01*
X0005529Y0099403D01*
X0005709Y0099544D01*
X0005892Y0099680D01*
X0006078Y0099812D01*
X0006268Y0099940D01*
X0006460Y0100063D01*
X0006656Y0100181D01*
X0006854Y0100294D01*
X0007055Y0100403D01*
X0007258Y0100506D01*
X0007464Y0100605D01*
X0007672Y0100699D01*
X0007883Y0100787D01*
X0008095Y0100871D01*
X0008310Y0100949D01*
X0008526Y0101023D01*
X0008744Y0101090D01*
X0008964Y0101153D01*
X0009185Y0101210D01*
X0009407Y0101262D01*
X0009631Y0101309D01*
X0009855Y0101350D01*
X0010081Y0101386D01*
X0010307Y0101416D01*
X0010534Y0101441D01*
X0010762Y0101460D01*
X0010989Y0101474D01*
X0011218Y0101482D01*
X0011446Y0101485D01*
X0124202Y0092115D02*
X0124204Y0092273D01*
X0124210Y0092431D01*
X0124220Y0092589D01*
X0124234Y0092747D01*
X0124252Y0092904D01*
X0124273Y0093061D01*
X0124299Y0093217D01*
X0124329Y0093373D01*
X0124362Y0093528D01*
X0124400Y0093681D01*
X0124441Y0093834D01*
X0124486Y0093986D01*
X0124535Y0094137D01*
X0124588Y0094286D01*
X0124644Y0094434D01*
X0124704Y0094580D01*
X0124768Y0094725D01*
X0124836Y0094868D01*
X0124907Y0095010D01*
X0124981Y0095150D01*
X0125059Y0095287D01*
X0125141Y0095423D01*
X0125225Y0095557D01*
X0125314Y0095688D01*
X0125405Y0095817D01*
X0125500Y0095944D01*
X0125597Y0096069D01*
X0125698Y0096191D01*
X0125802Y0096310D01*
X0125909Y0096427D01*
X0126019Y0096541D01*
X0126132Y0096652D01*
X0126247Y0096761D01*
X0126365Y0096866D01*
X0126486Y0096968D01*
X0126609Y0097068D01*
X0126735Y0097164D01*
X0126863Y0097257D01*
X0126993Y0097347D01*
X0127126Y0097433D01*
X0127261Y0097517D01*
X0127397Y0097596D01*
X0127536Y0097673D01*
X0127677Y0097745D01*
X0127819Y0097815D01*
X0127963Y0097880D01*
X0128109Y0097942D01*
X0128256Y0098000D01*
X0128405Y0098055D01*
X0128555Y0098106D01*
X0128706Y0098153D01*
X0128858Y0098196D01*
X0129011Y0098235D01*
X0129166Y0098271D01*
X0129321Y0098302D01*
X0129477Y0098330D01*
X0129633Y0098354D01*
X0129790Y0098374D01*
X0129948Y0098390D01*
X0130105Y0098402D01*
X0130264Y0098410D01*
X0130422Y0098414D01*
X0130580Y0098414D01*
X0130738Y0098410D01*
X0130897Y0098402D01*
X0131054Y0098390D01*
X0131212Y0098374D01*
X0131369Y0098354D01*
X0131525Y0098330D01*
X0131681Y0098302D01*
X0131836Y0098271D01*
X0131991Y0098235D01*
X0132144Y0098196D01*
X0132296Y0098153D01*
X0132447Y0098106D01*
X0132597Y0098055D01*
X0132746Y0098000D01*
X0132893Y0097942D01*
X0133039Y0097880D01*
X0133183Y0097815D01*
X0133325Y0097745D01*
X0133466Y0097673D01*
X0133605Y0097596D01*
X0133741Y0097517D01*
X0133876Y0097433D01*
X0134009Y0097347D01*
X0134139Y0097257D01*
X0134267Y0097164D01*
X0134393Y0097068D01*
X0134516Y0096968D01*
X0134637Y0096866D01*
X0134755Y0096761D01*
X0134870Y0096652D01*
X0134983Y0096541D01*
X0135093Y0096427D01*
X0135200Y0096310D01*
X0135304Y0096191D01*
X0135405Y0096069D01*
X0135502Y0095944D01*
X0135597Y0095817D01*
X0135688Y0095688D01*
X0135777Y0095557D01*
X0135861Y0095423D01*
X0135943Y0095287D01*
X0136021Y0095150D01*
X0136095Y0095010D01*
X0136166Y0094868D01*
X0136234Y0094725D01*
X0136298Y0094580D01*
X0136358Y0094434D01*
X0136414Y0094286D01*
X0136467Y0094137D01*
X0136516Y0093986D01*
X0136561Y0093834D01*
X0136602Y0093681D01*
X0136640Y0093528D01*
X0136673Y0093373D01*
X0136703Y0093217D01*
X0136729Y0093061D01*
X0136750Y0092904D01*
X0136768Y0092747D01*
X0136782Y0092589D01*
X0136792Y0092431D01*
X0136798Y0092273D01*
X0136800Y0092115D01*
X0136798Y0091957D01*
X0136792Y0091799D01*
X0136782Y0091641D01*
X0136768Y0091483D01*
X0136750Y0091326D01*
X0136729Y0091169D01*
X0136703Y0091013D01*
X0136673Y0090857D01*
X0136640Y0090702D01*
X0136602Y0090549D01*
X0136561Y0090396D01*
X0136516Y0090244D01*
X0136467Y0090093D01*
X0136414Y0089944D01*
X0136358Y0089796D01*
X0136298Y0089650D01*
X0136234Y0089505D01*
X0136166Y0089362D01*
X0136095Y0089220D01*
X0136021Y0089080D01*
X0135943Y0088943D01*
X0135861Y0088807D01*
X0135777Y0088673D01*
X0135688Y0088542D01*
X0135597Y0088413D01*
X0135502Y0088286D01*
X0135405Y0088161D01*
X0135304Y0088039D01*
X0135200Y0087920D01*
X0135093Y0087803D01*
X0134983Y0087689D01*
X0134870Y0087578D01*
X0134755Y0087469D01*
X0134637Y0087364D01*
X0134516Y0087262D01*
X0134393Y0087162D01*
X0134267Y0087066D01*
X0134139Y0086973D01*
X0134009Y0086883D01*
X0133876Y0086797D01*
X0133741Y0086713D01*
X0133605Y0086634D01*
X0133466Y0086557D01*
X0133325Y0086485D01*
X0133183Y0086415D01*
X0133039Y0086350D01*
X0132893Y0086288D01*
X0132746Y0086230D01*
X0132597Y0086175D01*
X0132447Y0086124D01*
X0132296Y0086077D01*
X0132144Y0086034D01*
X0131991Y0085995D01*
X0131836Y0085959D01*
X0131681Y0085928D01*
X0131525Y0085900D01*
X0131369Y0085876D01*
X0131212Y0085856D01*
X0131054Y0085840D01*
X0130897Y0085828D01*
X0130738Y0085820D01*
X0130580Y0085816D01*
X0130422Y0085816D01*
X0130264Y0085820D01*
X0130105Y0085828D01*
X0129948Y0085840D01*
X0129790Y0085856D01*
X0129633Y0085876D01*
X0129477Y0085900D01*
X0129321Y0085928D01*
X0129166Y0085959D01*
X0129011Y0085995D01*
X0128858Y0086034D01*
X0128706Y0086077D01*
X0128555Y0086124D01*
X0128405Y0086175D01*
X0128256Y0086230D01*
X0128109Y0086288D01*
X0127963Y0086350D01*
X0127819Y0086415D01*
X0127677Y0086485D01*
X0127536Y0086557D01*
X0127397Y0086634D01*
X0127261Y0086713D01*
X0127126Y0086797D01*
X0126993Y0086883D01*
X0126863Y0086973D01*
X0126735Y0087066D01*
X0126609Y0087162D01*
X0126486Y0087262D01*
X0126365Y0087364D01*
X0126247Y0087469D01*
X0126132Y0087578D01*
X0126019Y0087689D01*
X0125909Y0087803D01*
X0125802Y0087920D01*
X0125698Y0088039D01*
X0125597Y0088161D01*
X0125500Y0088286D01*
X0125405Y0088413D01*
X0125314Y0088542D01*
X0125225Y0088673D01*
X0125141Y0088807D01*
X0125059Y0088943D01*
X0124981Y0089080D01*
X0124907Y0089220D01*
X0124836Y0089362D01*
X0124768Y0089505D01*
X0124704Y0089650D01*
X0124644Y0089796D01*
X0124588Y0089944D01*
X0124535Y0090093D01*
X0124486Y0090244D01*
X0124441Y0090396D01*
X0124400Y0090549D01*
X0124362Y0090702D01*
X0124329Y0090857D01*
X0124299Y0091013D01*
X0124273Y0091169D01*
X0124252Y0091326D01*
X0124234Y0091483D01*
X0124220Y0091641D01*
X0124210Y0091799D01*
X0124204Y0091957D01*
X0124202Y0092115D01*
D11*
X0126800Y0046800D03*
X0126800Y0036800D03*
X0126800Y0026800D03*
X0016800Y0026800D03*
X0016800Y0036800D03*
X0016800Y0046800D03*
D12*
X0026800Y0058454D03*
X0026800Y0065146D03*
X0116800Y0065146D03*
X0116800Y0058454D03*
D13*
X0101761Y0046800D03*
X0101761Y0036800D03*
X0101761Y0026800D03*
X0041839Y0026800D03*
X0041839Y0036800D03*
X0041839Y0046800D03*
D14*
X0040186Y0047154D01*
X0040186Y0036918D02*
X0041839Y0036800D01*
X0022469Y0053060D02*
X0012627Y0053060D01*
X0008690Y0049123D01*
X0008690Y0042312D01*
X0022469Y0053060D02*
X0026406Y0056997D01*
X0026800Y0058454D01*
X0028375Y0064871D02*
X0026800Y0065146D01*
X0101209Y0047154D02*
X0101761Y0046800D01*
X0103178Y0047154D01*
X0103178Y0037312D02*
X0101761Y0036800D01*
X0103178Y0027469D02*
X0101761Y0026800D01*
X0126800Y0027469D02*
X0134674Y0032469D01*
X0134674Y0049123D01*
X0130737Y0053060D01*
X0120894Y0053060D01*
X0116957Y0056997D01*
X0116800Y0058454D01*
X0114989Y0064871D02*
X0116800Y0065146D01*
X0115146Y0065146D01*
D15*
X0116616Y0065331D02*
X0116616Y0064962D01*
X0113047Y0064962D01*
X0113047Y0062969D01*
X0113155Y0062565D01*
X0113364Y0062203D01*
X0113476Y0062092D01*
X0112635Y0061250D01*
X0112635Y0055657D01*
X0113806Y0054485D01*
X0115934Y0054485D01*
X0118775Y0051644D01*
X0119478Y0050940D01*
X0120397Y0050560D01*
X0124170Y0050560D01*
X0123812Y0050299D01*
X0123301Y0049788D01*
X0122877Y0049204D01*
X0122549Y0048561D01*
X0122326Y0047874D01*
X0122213Y0047161D01*
X0122213Y0047000D01*
X0126600Y0047000D01*
X0126600Y0046600D01*
X0127000Y0046600D01*
X0127000Y0047000D01*
X0131387Y0047000D01*
X0131387Y0047161D01*
X0131274Y0047874D01*
X0131051Y0048561D01*
X0130723Y0049204D01*
X0130299Y0049788D01*
X0129788Y0050299D01*
X0129430Y0050560D01*
X0129701Y0050560D01*
X0132174Y0048087D01*
X0132174Y0033843D01*
X0128498Y0031509D01*
X0127795Y0031800D01*
X0129632Y0032561D01*
X0131039Y0033968D01*
X0131800Y0035805D01*
X0131800Y0037795D01*
X0131039Y0039632D01*
X0129632Y0041039D01*
X0127795Y0041800D01*
X0125805Y0041800D01*
X0123968Y0041039D01*
X0122561Y0039632D01*
X0122420Y0039292D01*
X0108800Y0039292D01*
X0108800Y0067628D01*
X0107628Y0068800D01*
X0035972Y0068800D01*
X0034800Y0067628D01*
X0034800Y0049292D01*
X0021180Y0049292D01*
X0021039Y0049632D01*
X0020111Y0050560D01*
X0022967Y0050560D01*
X0023885Y0050940D01*
X0024589Y0051644D01*
X0027430Y0054485D01*
X0029794Y0054485D01*
X0030965Y0055657D01*
X0030965Y0061250D01*
X0030124Y0062092D01*
X0030236Y0062203D01*
X0030445Y0062565D01*
X0030553Y0062969D01*
X0030553Y0064962D01*
X0026984Y0064962D01*
X0026984Y0065331D01*
X0026616Y0065331D01*
X0026616Y0068702D01*
X0024426Y0068702D01*
X0024022Y0068594D01*
X0023660Y0068385D01*
X0023364Y0068090D01*
X0023155Y0067728D01*
X0023047Y0067324D01*
X0023047Y0065331D01*
X0026616Y0065331D01*
X0026616Y0064962D01*
X0023047Y0064962D01*
X0023047Y0062969D01*
X0023155Y0062565D01*
X0023364Y0062203D01*
X0023476Y0062092D01*
X0022635Y0061250D01*
X0022635Y0056761D01*
X0021434Y0055560D01*
X0012129Y0055560D01*
X0011211Y0055179D01*
X0007274Y0051242D01*
X0007274Y0051242D01*
X0006570Y0050539D01*
X0006190Y0049620D01*
X0006190Y0042529D01*
X0006149Y0042332D01*
X0006190Y0042118D01*
X0006190Y0041815D01*
X0006297Y0041556D01*
X0006335Y0041358D01*
X0006454Y0041176D01*
X0006570Y0040896D01*
X0006768Y0040698D01*
X0006879Y0040529D01*
X0007059Y0040407D01*
X0007274Y0040192D01*
X0007532Y0040085D01*
X0011800Y0037185D01*
X0011800Y0035805D01*
X0012561Y0033968D01*
X0013968Y0032561D01*
X0015805Y0031800D01*
X0013968Y0031039D01*
X0012561Y0029632D01*
X0011800Y0027795D01*
X0011800Y0025805D01*
X0012561Y0023968D01*
X0013968Y0022561D01*
X0015805Y0021800D01*
X0017795Y0021800D01*
X0019632Y0022561D01*
X0021039Y0023968D01*
X0021180Y0024308D01*
X0034800Y0024308D01*
X0034800Y0005972D01*
X0035972Y0004800D01*
X0107628Y0004800D01*
X0108800Y0005972D01*
X0108800Y0024308D01*
X0122420Y0024308D01*
X0122561Y0023968D01*
X0123968Y0022561D01*
X0125805Y0021800D01*
X0127795Y0021800D01*
X0129632Y0022561D01*
X0131039Y0023968D01*
X0131800Y0025805D01*
X0131800Y0027683D01*
X0135831Y0030243D01*
X0136090Y0030350D01*
X0136247Y0030507D01*
X0136434Y0030625D01*
X0136595Y0030855D01*
X0136793Y0031053D01*
X0136878Y0031258D01*
X0137006Y0031439D01*
X0137067Y0031713D01*
X0137174Y0031972D01*
X0137174Y0032194D01*
X0137222Y0032410D01*
X0137174Y0032686D01*
X0137174Y0049620D01*
X0136793Y0050539D01*
X0136090Y0051242D01*
X0138580Y0051242D01*
X0138580Y0049644D02*
X0137164Y0049644D01*
X0137174Y0048045D02*
X0138580Y0048045D01*
X0138580Y0046447D02*
X0137174Y0046447D01*
X0137174Y0044848D02*
X0138580Y0044848D01*
X0138580Y0043250D02*
X0137174Y0043250D01*
X0137174Y0041651D02*
X0138580Y0041651D01*
X0138580Y0040053D02*
X0137174Y0040053D01*
X0137174Y0038454D02*
X0138580Y0038454D01*
X0138580Y0036856D02*
X0137174Y0036856D01*
X0137174Y0035257D02*
X0138580Y0035257D01*
X0138580Y0033659D02*
X0137174Y0033659D01*
X0137174Y0032060D02*
X0138580Y0032060D01*
X0138580Y0030462D02*
X0136202Y0030462D01*
X0138580Y0028863D02*
X0133659Y0028863D01*
X0131800Y0027265D02*
X0138580Y0027265D01*
X0138580Y0025666D02*
X0131742Y0025666D01*
X0131080Y0024068D02*
X0138580Y0024068D01*
X0138580Y0022469D02*
X0129410Y0022469D01*
X0128732Y0019784D02*
X0125682Y0018521D01*
X0123347Y0016186D01*
X0122083Y0013136D01*
X0122083Y0009834D01*
X0123347Y0006784D01*
X0125682Y0004449D01*
X0128010Y0003485D01*
X0014173Y0003485D01*
X0016501Y0004449D01*
X0018836Y0006784D01*
X0020099Y0009834D01*
X0020099Y0013136D01*
X0018836Y0016186D01*
X0016501Y0018521D01*
X0013451Y0019784D01*
X0010149Y0019784D01*
X0007099Y0018521D01*
X0004764Y0016186D01*
X0003997Y0014333D01*
X0003997Y0089267D01*
X0004764Y0087414D01*
X0007099Y0085079D01*
X0010149Y0083816D01*
X0013451Y0083816D01*
X0016501Y0085079D01*
X0018836Y0087414D01*
X0020099Y0090464D01*
X0020099Y0093766D01*
X0018836Y0096816D01*
X0016501Y0099151D01*
X0015694Y0099485D01*
X0126607Y0099485D01*
X0125800Y0099151D01*
X0123465Y0096816D01*
X0122202Y0093766D01*
X0122202Y0090464D01*
X0123465Y0087414D01*
X0125800Y0085079D01*
X0128850Y0083816D01*
X0132152Y0083816D01*
X0135202Y0085079D01*
X0137537Y0087414D01*
X0138580Y0089932D01*
X0138580Y0013383D01*
X0137418Y0016186D01*
X0135084Y0018521D01*
X0132033Y0019784D01*
X0128732Y0019784D01*
X0127495Y0019272D02*
X0108800Y0019272D01*
X0108800Y0017673D02*
X0124834Y0017673D01*
X0123301Y0016075D02*
X0108800Y0016075D01*
X0108800Y0014476D02*
X0122639Y0014476D01*
X0122083Y0012878D02*
X0108800Y0012878D01*
X0108800Y0011279D02*
X0122083Y0011279D01*
X0122147Y0009681D02*
X0108800Y0009681D01*
X0108800Y0008082D02*
X0122809Y0008082D01*
X0123647Y0006484D02*
X0108800Y0006484D01*
X0107714Y0004885D02*
X0125245Y0004885D01*
X0138127Y0014476D02*
X0138580Y0014476D01*
X0138580Y0016075D02*
X0137464Y0016075D01*
X0138580Y0017673D02*
X0135931Y0017673D01*
X0138580Y0019272D02*
X0133270Y0019272D01*
X0138580Y0020870D02*
X0108800Y0020870D01*
X0108800Y0022469D02*
X0124190Y0022469D01*
X0122520Y0024068D02*
X0108800Y0024068D01*
X0108800Y0029292D02*
X0108800Y0034308D01*
X0122420Y0034308D01*
X0122561Y0033968D01*
X0123968Y0032561D01*
X0125805Y0031800D01*
X0127795Y0031800D01*
X0125805Y0031800D01*
X0123968Y0031039D01*
X0122561Y0029632D01*
X0122420Y0029292D01*
X0108800Y0029292D01*
X0108800Y0030462D02*
X0123390Y0030462D01*
X0125178Y0032060D02*
X0108800Y0032060D01*
X0108800Y0033659D02*
X0122870Y0033659D01*
X0128422Y0032060D02*
X0129366Y0032060D01*
X0130730Y0033659D02*
X0131883Y0033659D01*
X0132174Y0035257D02*
X0131573Y0035257D01*
X0131800Y0036856D02*
X0132174Y0036856D01*
X0132174Y0038454D02*
X0131527Y0038454D01*
X0132174Y0040053D02*
X0130618Y0040053D01*
X0132174Y0041651D02*
X0128154Y0041651D01*
X0127874Y0042326D02*
X0128561Y0042549D01*
X0129204Y0042877D01*
X0129788Y0043301D01*
X0130299Y0043812D01*
X0130723Y0044396D01*
X0131051Y0045039D01*
X0131274Y0045726D01*
X0131387Y0046439D01*
X0131387Y0046600D01*
X0127000Y0046600D01*
X0127000Y0042213D01*
X0127161Y0042213D01*
X0127874Y0042326D01*
X0127000Y0043250D02*
X0126600Y0043250D01*
X0126600Y0042213D02*
X0126600Y0046600D01*
X0122213Y0046600D01*
X0122213Y0046439D01*
X0122326Y0045726D01*
X0122549Y0045039D01*
X0122877Y0044396D01*
X0123301Y0043812D01*
X0123812Y0043301D01*
X0124396Y0042877D01*
X0125039Y0042549D01*
X0125726Y0042326D01*
X0126439Y0042213D01*
X0126600Y0042213D01*
X0125446Y0041651D02*
X0108800Y0041651D01*
X0108800Y0043250D02*
X0123882Y0043250D01*
X0122646Y0044848D02*
X0108800Y0044848D01*
X0108800Y0046447D02*
X0122213Y0046447D01*
X0122381Y0048045D02*
X0108800Y0048045D01*
X0108800Y0049644D02*
X0123196Y0049644D01*
X0119177Y0051242D02*
X0108800Y0051242D01*
X0108800Y0052841D02*
X0117578Y0052841D01*
X0115980Y0054439D02*
X0108800Y0054439D01*
X0108800Y0056038D02*
X0112635Y0056038D01*
X0112635Y0057636D02*
X0108800Y0057636D01*
X0108800Y0059235D02*
X0112635Y0059235D01*
X0112635Y0060833D02*
X0108800Y0060833D01*
X0108800Y0062432D02*
X0113232Y0062432D01*
X0113047Y0064030D02*
X0108800Y0064030D01*
X0108800Y0065629D02*
X0113047Y0065629D01*
X0113047Y0065331D02*
X0116616Y0065331D01*
X0116616Y0068702D01*
X0114426Y0068702D01*
X0114022Y0068594D01*
X0113660Y0068385D01*
X0113364Y0068090D01*
X0113155Y0067728D01*
X0113047Y0067324D01*
X0113047Y0065331D01*
X0113047Y0067227D02*
X0108800Y0067227D01*
X0116616Y0067227D02*
X0116984Y0067227D01*
X0116984Y0068702D02*
X0116984Y0065331D01*
X0116616Y0065331D01*
X0116616Y0065629D02*
X0116984Y0065629D01*
X0116984Y0065331D02*
X0120553Y0065331D01*
X0120553Y0067324D01*
X0120445Y0067728D01*
X0120236Y0068090D01*
X0119940Y0068385D01*
X0119578Y0068594D01*
X0119174Y0068702D01*
X0116984Y0068702D01*
X0120553Y0067227D02*
X0138580Y0067227D01*
X0138580Y0065629D02*
X0120553Y0065629D01*
X0120553Y0064962D02*
X0116984Y0064962D01*
X0116984Y0065331D01*
X0120553Y0064962D02*
X0120553Y0062969D01*
X0120445Y0062565D01*
X0120236Y0062203D01*
X0120124Y0062092D01*
X0120965Y0061250D01*
X0120965Y0056524D01*
X0121930Y0055560D01*
X0131234Y0055560D01*
X0132153Y0055179D01*
X0136090Y0051242D01*
X0134492Y0052841D02*
X0138580Y0052841D01*
X0138580Y0054439D02*
X0132893Y0054439D01*
X0138580Y0056038D02*
X0121452Y0056038D01*
X0120965Y0057636D02*
X0138580Y0057636D01*
X0138580Y0059235D02*
X0120965Y0059235D01*
X0120965Y0060833D02*
X0138580Y0060833D01*
X0138580Y0062432D02*
X0120368Y0062432D01*
X0120553Y0064030D02*
X0138580Y0064030D01*
X0138580Y0068826D02*
X0003997Y0068826D01*
X0003997Y0070424D02*
X0138580Y0070424D01*
X0138580Y0072023D02*
X0003997Y0072023D01*
X0003997Y0073621D02*
X0138580Y0073621D01*
X0138580Y0075220D02*
X0003997Y0075220D01*
X0003997Y0076818D02*
X0138580Y0076818D01*
X0138580Y0078417D02*
X0003997Y0078417D01*
X0003997Y0080015D02*
X0138580Y0080015D01*
X0138580Y0081614D02*
X0003997Y0081614D01*
X0003997Y0083212D02*
X0138580Y0083212D01*
X0138580Y0084811D02*
X0134554Y0084811D01*
X0136532Y0086409D02*
X0138580Y0086409D01*
X0138580Y0088008D02*
X0137783Y0088008D01*
X0138445Y0089606D02*
X0138580Y0089606D01*
X0126447Y0084811D02*
X0015853Y0084811D01*
X0017831Y0086409D02*
X0124469Y0086409D01*
X0123219Y0088008D02*
X0019082Y0088008D01*
X0019744Y0089606D02*
X0122557Y0089606D01*
X0122202Y0091205D02*
X0020099Y0091205D01*
X0020099Y0092803D02*
X0122202Y0092803D01*
X0122465Y0094402D02*
X0019836Y0094402D01*
X0019174Y0096001D02*
X0123127Y0096001D01*
X0124248Y0097599D02*
X0018053Y0097599D01*
X0016388Y0099198D02*
X0125913Y0099198D01*
X0130404Y0049644D02*
X0130618Y0049644D01*
X0131219Y0048045D02*
X0132174Y0048045D01*
X0132174Y0046447D02*
X0131387Y0046447D01*
X0130954Y0044848D02*
X0132174Y0044848D01*
X0132174Y0043250D02*
X0129718Y0043250D01*
X0127000Y0044848D02*
X0126600Y0044848D01*
X0126600Y0046447D02*
X0127000Y0046447D01*
X0122982Y0040053D02*
X0108800Y0040053D01*
X0034800Y0034308D02*
X0034800Y0029292D01*
X0021180Y0029292D01*
X0021039Y0029632D01*
X0019632Y0031039D01*
X0017795Y0031800D01*
X0015805Y0031800D01*
X0017795Y0031800D01*
X0019632Y0032561D01*
X0021039Y0033968D01*
X0021180Y0034308D01*
X0034800Y0034308D01*
X0034800Y0033659D02*
X0020730Y0033659D01*
X0018422Y0032060D02*
X0034800Y0032060D01*
X0034800Y0030462D02*
X0020209Y0030462D01*
X0015178Y0032060D02*
X0003997Y0032060D01*
X0003997Y0030462D02*
X0013390Y0030462D01*
X0012243Y0028863D02*
X0003997Y0028863D01*
X0003997Y0027265D02*
X0011800Y0027265D01*
X0011858Y0025666D02*
X0003997Y0025666D01*
X0003997Y0024068D02*
X0012520Y0024068D01*
X0014190Y0022469D02*
X0003997Y0022469D01*
X0003997Y0020870D02*
X0034800Y0020870D01*
X0034800Y0022469D02*
X0019410Y0022469D01*
X0021080Y0024068D02*
X0034800Y0024068D01*
X0034800Y0019272D02*
X0014688Y0019272D01*
X0017348Y0017673D02*
X0034800Y0017673D01*
X0034800Y0016075D02*
X0018882Y0016075D01*
X0019544Y0014476D02*
X0034800Y0014476D01*
X0034800Y0012878D02*
X0020099Y0012878D01*
X0020099Y0011279D02*
X0034800Y0011279D01*
X0034800Y0009681D02*
X0020036Y0009681D01*
X0019374Y0008082D02*
X0034800Y0008082D01*
X0034800Y0006484D02*
X0018536Y0006484D01*
X0016937Y0004885D02*
X0035886Y0004885D01*
X0008912Y0019272D02*
X0003997Y0019272D01*
X0003997Y0017673D02*
X0006252Y0017673D01*
X0004718Y0016075D02*
X0003997Y0016075D01*
X0003997Y0014476D02*
X0004056Y0014476D01*
X0003997Y0033659D02*
X0012870Y0033659D01*
X0012027Y0035257D02*
X0003997Y0035257D01*
X0003997Y0036856D02*
X0011800Y0036856D01*
X0009932Y0038454D02*
X0003997Y0038454D01*
X0003997Y0040053D02*
X0007580Y0040053D01*
X0006257Y0041651D02*
X0003997Y0041651D01*
X0003997Y0043250D02*
X0006190Y0043250D01*
X0006190Y0044848D02*
X0003997Y0044848D01*
X0003997Y0046447D02*
X0006190Y0046447D01*
X0006190Y0048045D02*
X0003997Y0048045D01*
X0003997Y0049644D02*
X0006200Y0049644D01*
X0007274Y0051242D02*
X0003997Y0051242D01*
X0003997Y0052841D02*
X0008872Y0052841D01*
X0010471Y0054439D02*
X0003997Y0054439D01*
X0003997Y0056038D02*
X0021912Y0056038D01*
X0022635Y0057636D02*
X0003997Y0057636D01*
X0003997Y0059235D02*
X0022635Y0059235D01*
X0022635Y0060833D02*
X0003997Y0060833D01*
X0003997Y0062432D02*
X0023232Y0062432D01*
X0023047Y0064030D02*
X0003997Y0064030D01*
X0003997Y0065629D02*
X0023047Y0065629D01*
X0023047Y0067227D02*
X0003997Y0067227D01*
X0024187Y0051242D02*
X0034800Y0051242D01*
X0034800Y0049644D02*
X0021027Y0049644D01*
X0024589Y0051644D02*
X0024589Y0051644D01*
X0025786Y0052841D02*
X0034800Y0052841D01*
X0034800Y0054439D02*
X0027384Y0054439D01*
X0030965Y0056038D02*
X0034800Y0056038D01*
X0034800Y0057636D02*
X0030965Y0057636D01*
X0030965Y0059235D02*
X0034800Y0059235D01*
X0034800Y0060833D02*
X0030965Y0060833D01*
X0030368Y0062432D02*
X0034800Y0062432D01*
X0034800Y0064030D02*
X0030553Y0064030D01*
X0030553Y0065331D02*
X0030553Y0067324D01*
X0030445Y0067728D01*
X0030236Y0068090D01*
X0029940Y0068385D01*
X0029578Y0068594D01*
X0029174Y0068702D01*
X0026984Y0068702D01*
X0026984Y0065331D01*
X0030553Y0065331D01*
X0030553Y0065629D02*
X0034800Y0065629D01*
X0034800Y0067227D02*
X0030553Y0067227D01*
X0026984Y0067227D02*
X0026616Y0067227D01*
X0026616Y0065629D02*
X0026984Y0065629D01*
X0007747Y0084811D02*
X0003997Y0084811D01*
X0003997Y0086409D02*
X0005769Y0086409D01*
X0004518Y0088008D02*
X0003997Y0088008D01*
D16*
X0016800Y0046800D02*
X0041839Y0046800D01*
X0041839Y0036800D02*
X0016800Y0036800D01*
X0008690Y0042312D01*
X0016800Y0026800D02*
X0041839Y0026800D01*
X0101761Y0026800D02*
X0126800Y0026800D01*
X0126800Y0036800D02*
X0101761Y0036800D01*
X0101761Y0046800D02*
X0126800Y0046800D01*
M02*
