G75*
%MOIN*%
%OFA0B0*%
%FSLAX25Y25*%
%IPPOS*%
%LPD*%
%AMOC8*
5,1,8,0,0,1.08239X$1,22.5*
%
%ADD10C,0.01100*%
%ADD11C,0.00500*%
%ADD12C,0.01000*%
%ADD13C,0.05600*%
%ADD14R,0.00100X0.00100*%
%ADD15R,0.00400X0.00100*%
%ADD16R,0.00300X0.00100*%
%ADD17R,0.00600X0.00100*%
%ADD18R,0.00900X0.00100*%
%ADD19R,0.00800X0.00100*%
%ADD20R,0.01000X0.00100*%
%ADD21R,0.01100X0.00100*%
%ADD22R,0.01900X0.00100*%
%ADD23R,0.01800X0.00100*%
%ADD24R,0.02100X0.00100*%
%ADD25R,0.02000X0.00100*%
%ADD26R,0.02200X0.00100*%
%ADD27R,0.02300X0.00100*%
%ADD28R,0.02700X0.00100*%
%ADD29R,0.02800X0.00100*%
%ADD30R,0.02600X0.00100*%
%ADD31R,0.02900X0.00100*%
%ADD32R,0.05100X0.00100*%
%ADD33R,0.04900X0.00100*%
%ADD34R,0.05300X0.00100*%
%ADD35R,0.05500X0.00100*%
%ADD36R,0.05700X0.00100*%
%ADD37R,0.05900X0.00100*%
%ADD38R,0.01400X0.00100*%
%ADD39R,0.01300X0.00100*%
%ADD40R,0.01200X0.00100*%
%ADD41R,0.01700X0.00100*%
%ADD42R,0.01500X0.00100*%
%ADD43R,0.00200X0.00100*%
D10*
X0062744Y0082350D02*
X0064712Y0084318D01*
X0064712Y0088255D01*
X0067221Y0086287D02*
X0069189Y0088255D01*
X0069189Y0082350D01*
X0067221Y0082350D02*
X0071157Y0082350D01*
X0073666Y0082350D02*
X0074650Y0082350D01*
X0074650Y0083334D01*
X0073666Y0083334D01*
X0073666Y0082350D01*
X0076889Y0083334D02*
X0080826Y0087271D01*
X0080826Y0083334D01*
X0079841Y0082350D01*
X0077873Y0082350D01*
X0076889Y0083334D01*
X0076889Y0087271D01*
X0077873Y0088255D01*
X0079841Y0088255D01*
X0080826Y0087271D01*
X0081838Y0092350D02*
X0080854Y0093334D01*
X0080854Y0095303D01*
X0081838Y0096287D01*
X0083807Y0096287D01*
X0084791Y0095303D01*
X0084791Y0093334D01*
X0083807Y0092350D01*
X0081838Y0092350D01*
X0078345Y0093334D02*
X0077361Y0092350D01*
X0075393Y0092350D01*
X0074409Y0093334D01*
X0074409Y0097271D01*
X0075393Y0098255D01*
X0077361Y0098255D01*
X0078345Y0097271D01*
X0071900Y0095303D02*
X0067963Y0095303D01*
X0065454Y0097271D02*
X0065454Y0093334D01*
X0064470Y0092350D01*
X0062502Y0092350D01*
X0061518Y0093334D01*
X0061518Y0097271D01*
X0062502Y0098255D01*
X0064470Y0098255D01*
X0065454Y0097271D01*
X0063486Y0094318D02*
X0065454Y0092350D01*
X0060775Y0088255D02*
X0060775Y0084318D01*
X0062744Y0082350D01*
X0059009Y0092350D02*
X0059009Y0096287D01*
X0057041Y0098255D01*
X0055072Y0096287D01*
X0055072Y0092350D01*
X0052744Y0092350D02*
X0050775Y0092350D01*
X0051759Y0092350D02*
X0051759Y0098255D01*
X0050775Y0098255D02*
X0052744Y0098255D01*
X0055072Y0095303D02*
X0059009Y0095303D01*
X0087300Y0096287D02*
X0087300Y0092350D01*
X0087300Y0094318D02*
X0089268Y0096287D01*
X0090252Y0096287D01*
X0092671Y0095303D02*
X0092671Y0093334D01*
X0093655Y0092350D01*
X0095623Y0092350D01*
X0096608Y0094318D02*
X0092671Y0094318D01*
X0092671Y0095303D02*
X0093655Y0096287D01*
X0095623Y0096287D01*
X0096608Y0095303D01*
X0096608Y0094318D01*
D11*
X0023382Y0025089D02*
X0022798Y0025673D01*
X0022798Y0028009D01*
X0023382Y0028592D01*
X0024550Y0028592D01*
X0025133Y0028009D01*
X0026481Y0028592D02*
X0028816Y0025089D01*
X0028816Y0028592D01*
X0030164Y0028592D02*
X0031916Y0028592D01*
X0032500Y0028009D01*
X0032500Y0025673D01*
X0031916Y0025089D01*
X0030164Y0025089D01*
X0030164Y0028592D01*
X0026481Y0028592D02*
X0026481Y0025089D01*
X0025133Y0025673D02*
X0025133Y0026841D01*
X0023966Y0026841D01*
X0025133Y0025673D02*
X0024550Y0025089D01*
X0023382Y0025089D01*
X0023382Y0035168D02*
X0022798Y0035752D01*
X0023382Y0035168D02*
X0024550Y0035168D01*
X0025133Y0035752D01*
X0025133Y0036336D01*
X0024550Y0036920D01*
X0023382Y0036920D01*
X0022798Y0037503D01*
X0022798Y0038087D01*
X0023382Y0038671D01*
X0024550Y0038671D01*
X0025133Y0038087D01*
X0026481Y0038087D02*
X0027065Y0038671D01*
X0028233Y0038671D01*
X0028816Y0038087D01*
X0030164Y0038671D02*
X0030164Y0035168D01*
X0032500Y0035168D01*
X0028816Y0035752D02*
X0028233Y0035168D01*
X0027065Y0035168D01*
X0026481Y0035752D01*
X0026481Y0038087D01*
X0027183Y0045129D02*
X0028351Y0045129D01*
X0028935Y0045713D01*
X0027183Y0045129D02*
X0026599Y0045713D01*
X0026599Y0048048D01*
X0027183Y0048632D01*
X0028351Y0048632D01*
X0028935Y0048048D01*
X0025251Y0048632D02*
X0025251Y0045129D01*
X0022916Y0048632D01*
X0022916Y0045129D01*
X0109041Y0045673D02*
X0109625Y0045089D01*
X0110792Y0045089D01*
X0111376Y0045673D01*
X0111376Y0046257D01*
X0110792Y0046841D01*
X0110209Y0046841D01*
X0110792Y0046841D02*
X0111376Y0047425D01*
X0111376Y0048009D01*
X0110792Y0048592D01*
X0109625Y0048592D01*
X0109041Y0048009D01*
X0112724Y0045673D02*
X0112724Y0045089D01*
X0113308Y0045089D01*
X0113308Y0045673D01*
X0112724Y0045673D01*
X0114566Y0045673D02*
X0115149Y0045089D01*
X0116317Y0045089D01*
X0116901Y0045673D01*
X0116901Y0046257D01*
X0116317Y0046841D01*
X0115733Y0046841D01*
X0116317Y0046841D02*
X0116901Y0047425D01*
X0116901Y0048009D01*
X0116317Y0048592D01*
X0115149Y0048592D01*
X0114566Y0048009D01*
X0118249Y0048592D02*
X0118249Y0046257D01*
X0119416Y0045089D01*
X0120584Y0046257D01*
X0120584Y0048592D01*
X0120079Y0038592D02*
X0118911Y0038592D01*
X0118327Y0038009D01*
X0118327Y0035673D01*
X0118911Y0035089D01*
X0120079Y0035089D01*
X0120663Y0035673D01*
X0120663Y0038009D02*
X0120079Y0038592D01*
X0116980Y0038592D02*
X0116980Y0035089D01*
X0114644Y0038592D01*
X0114644Y0035089D01*
X0114566Y0028514D02*
X0116317Y0028514D01*
X0116901Y0027930D01*
X0116901Y0025594D01*
X0116317Y0025011D01*
X0114566Y0025011D01*
X0114566Y0028514D01*
X0113218Y0027930D02*
X0112634Y0028514D01*
X0111466Y0028514D01*
X0110882Y0027930D01*
X0110882Y0027346D01*
X0111466Y0026762D01*
X0112634Y0026762D01*
X0113218Y0026178D01*
X0113218Y0025594D01*
X0112634Y0025011D01*
X0111466Y0025011D01*
X0110882Y0025594D01*
X0118249Y0025011D02*
X0118249Y0027346D01*
X0119416Y0028514D01*
X0120584Y0027346D01*
X0120584Y0025011D01*
X0120584Y0026762D02*
X0118249Y0026762D01*
D12*
X0106839Y0008060D02*
X0106839Y0078926D01*
X0106745Y0079233D02*
X0045591Y0079233D01*
X0036855Y0070497D01*
X0036855Y0008095D01*
X0036761Y0008060D02*
X0106839Y0008060D01*
D13*
X0031796Y0081792D02*
X0031798Y0081891D01*
X0031804Y0081991D01*
X0031814Y0082090D01*
X0031828Y0082188D01*
X0031845Y0082286D01*
X0031867Y0082383D01*
X0031892Y0082479D01*
X0031921Y0082574D01*
X0031954Y0082668D01*
X0031991Y0082760D01*
X0032031Y0082851D01*
X0032075Y0082940D01*
X0032123Y0083028D01*
X0032174Y0083113D01*
X0032228Y0083196D01*
X0032285Y0083278D01*
X0032346Y0083356D01*
X0032410Y0083433D01*
X0032476Y0083506D01*
X0032546Y0083577D01*
X0032618Y0083645D01*
X0032693Y0083711D01*
X0032771Y0083773D01*
X0032851Y0083832D01*
X0032933Y0083888D01*
X0033017Y0083940D01*
X0033104Y0083989D01*
X0033192Y0084035D01*
X0033282Y0084077D01*
X0033374Y0084116D01*
X0033467Y0084151D01*
X0033561Y0084182D01*
X0033657Y0084209D01*
X0033754Y0084232D01*
X0033851Y0084252D01*
X0033949Y0084268D01*
X0034048Y0084280D01*
X0034147Y0084288D01*
X0034246Y0084292D01*
X0034346Y0084292D01*
X0034445Y0084288D01*
X0034544Y0084280D01*
X0034643Y0084268D01*
X0034741Y0084252D01*
X0034838Y0084232D01*
X0034935Y0084209D01*
X0035031Y0084182D01*
X0035125Y0084151D01*
X0035218Y0084116D01*
X0035310Y0084077D01*
X0035400Y0084035D01*
X0035488Y0083989D01*
X0035575Y0083940D01*
X0035659Y0083888D01*
X0035741Y0083832D01*
X0035821Y0083773D01*
X0035899Y0083711D01*
X0035974Y0083645D01*
X0036046Y0083577D01*
X0036116Y0083506D01*
X0036182Y0083433D01*
X0036246Y0083356D01*
X0036307Y0083278D01*
X0036364Y0083196D01*
X0036418Y0083113D01*
X0036469Y0083028D01*
X0036517Y0082940D01*
X0036561Y0082851D01*
X0036601Y0082760D01*
X0036638Y0082668D01*
X0036671Y0082574D01*
X0036700Y0082479D01*
X0036725Y0082383D01*
X0036747Y0082286D01*
X0036764Y0082188D01*
X0036778Y0082090D01*
X0036788Y0081991D01*
X0036794Y0081891D01*
X0036796Y0081792D01*
X0036794Y0081693D01*
X0036788Y0081593D01*
X0036778Y0081494D01*
X0036764Y0081396D01*
X0036747Y0081298D01*
X0036725Y0081201D01*
X0036700Y0081105D01*
X0036671Y0081010D01*
X0036638Y0080916D01*
X0036601Y0080824D01*
X0036561Y0080733D01*
X0036517Y0080644D01*
X0036469Y0080556D01*
X0036418Y0080471D01*
X0036364Y0080388D01*
X0036307Y0080306D01*
X0036246Y0080228D01*
X0036182Y0080151D01*
X0036116Y0080078D01*
X0036046Y0080007D01*
X0035974Y0079939D01*
X0035899Y0079873D01*
X0035821Y0079811D01*
X0035741Y0079752D01*
X0035659Y0079696D01*
X0035575Y0079644D01*
X0035488Y0079595D01*
X0035400Y0079549D01*
X0035310Y0079507D01*
X0035218Y0079468D01*
X0035125Y0079433D01*
X0035031Y0079402D01*
X0034935Y0079375D01*
X0034838Y0079352D01*
X0034741Y0079332D01*
X0034643Y0079316D01*
X0034544Y0079304D01*
X0034445Y0079296D01*
X0034346Y0079292D01*
X0034246Y0079292D01*
X0034147Y0079296D01*
X0034048Y0079304D01*
X0033949Y0079316D01*
X0033851Y0079332D01*
X0033754Y0079352D01*
X0033657Y0079375D01*
X0033561Y0079402D01*
X0033467Y0079433D01*
X0033374Y0079468D01*
X0033282Y0079507D01*
X0033192Y0079549D01*
X0033104Y0079595D01*
X0033017Y0079644D01*
X0032933Y0079696D01*
X0032851Y0079752D01*
X0032771Y0079811D01*
X0032693Y0079873D01*
X0032618Y0079939D01*
X0032546Y0080007D01*
X0032476Y0080078D01*
X0032410Y0080151D01*
X0032346Y0080228D01*
X0032285Y0080306D01*
X0032228Y0080388D01*
X0032174Y0080471D01*
X0032123Y0080556D01*
X0032075Y0080644D01*
X0032031Y0080733D01*
X0031991Y0080824D01*
X0031954Y0080916D01*
X0031921Y0081010D01*
X0031892Y0081105D01*
X0031867Y0081201D01*
X0031845Y0081298D01*
X0031828Y0081396D01*
X0031814Y0081494D01*
X0031804Y0081593D01*
X0031798Y0081693D01*
X0031796Y0081792D01*
D14*
X0112686Y0092000D03*
X0117086Y0092000D03*
X0112686Y0097900D03*
D15*
X0112636Y0097800D03*
X0112636Y0092100D03*
D16*
X0113686Y0092400D03*
X0116086Y0092400D03*
X0117086Y0092100D03*
X0117086Y0097800D03*
D17*
X0117036Y0097700D03*
X0112736Y0097700D03*
X0112736Y0092200D03*
X0117036Y0092200D03*
D18*
X0112686Y0092300D03*
X0112686Y0097600D03*
X0117086Y0097600D03*
D19*
X0117036Y0092300D03*
D20*
X0112736Y0092400D03*
D21*
X0117086Y0092400D03*
X0114886Y0098300D03*
X0114886Y0098400D03*
X0114886Y0098500D03*
X0114886Y0098600D03*
X0112786Y0097500D03*
D22*
X0113386Y0093600D03*
X0113386Y0093500D03*
X0113286Y0093400D03*
X0113286Y0093300D03*
X0112986Y0092600D03*
X0112986Y0092500D03*
X0116386Y0093500D03*
X0116386Y0093600D03*
X0116486Y0093400D03*
X0116486Y0093300D03*
X0116786Y0092600D03*
D23*
X0116736Y0092500D03*
D24*
X0116786Y0092700D03*
X0116786Y0092800D03*
X0116386Y0093700D03*
X0116386Y0093800D03*
X0116486Y0094100D03*
X0116586Y0094200D03*
X0116586Y0095700D03*
X0116486Y0095800D03*
X0114886Y0097500D03*
X0113286Y0095800D03*
X0113186Y0095700D03*
X0113186Y0094200D03*
X0113286Y0094100D03*
X0113386Y0093800D03*
X0113386Y0093700D03*
X0112986Y0092800D03*
X0112986Y0092700D03*
D25*
X0113036Y0092900D03*
X0113136Y0093000D03*
X0113136Y0093100D03*
X0113236Y0093200D03*
X0116536Y0093200D03*
X0116636Y0093100D03*
X0116636Y0093000D03*
X0116736Y0092900D03*
D26*
X0116436Y0094000D03*
X0113336Y0094000D03*
X0113336Y0093900D03*
D27*
X0112986Y0094300D03*
X0112986Y0095600D03*
X0113386Y0095900D03*
X0116386Y0095900D03*
X0116786Y0095600D03*
X0116786Y0094300D03*
X0116386Y0093900D03*
D28*
X0117086Y0094400D03*
X0117186Y0094600D03*
X0117186Y0094700D03*
X0117286Y0094900D03*
X0117186Y0095000D03*
X0117186Y0095300D03*
X0117086Y0095500D03*
X0114886Y0097400D03*
X0112686Y0095500D03*
X0112486Y0094900D03*
X0112686Y0094400D03*
D29*
X0112536Y0094500D03*
X0112536Y0094600D03*
X0112536Y0094700D03*
X0112536Y0095000D03*
X0112536Y0095100D03*
X0112536Y0095200D03*
X0112536Y0095300D03*
X0112636Y0095400D03*
X0117236Y0095200D03*
X0117236Y0095100D03*
X0117236Y0094800D03*
X0117236Y0094500D03*
D30*
X0112536Y0094800D03*
D31*
X0117186Y0095400D03*
D32*
X0114886Y0096000D03*
X0114886Y0096100D03*
X0114886Y0096500D03*
X0114886Y0096600D03*
D33*
X0114886Y0096400D03*
X0114886Y0096300D03*
X0114886Y0096200D03*
D34*
X0114886Y0096700D03*
D35*
X0114886Y0096800D03*
X0114886Y0096900D03*
D36*
X0114886Y0097000D03*
X0114886Y0097300D03*
D37*
X0114886Y0097200D03*
X0114886Y0097100D03*
D38*
X0112736Y0097400D03*
D39*
X0114886Y0097800D03*
X0114886Y0097900D03*
X0114886Y0098000D03*
X0114886Y0098100D03*
X0114886Y0098200D03*
X0116986Y0097400D03*
D40*
X0117036Y0097500D03*
D41*
X0114886Y0097600D03*
D42*
X0114886Y0097700D03*
D43*
X0117136Y0097900D03*
M02*
