G75*
%MOIN*%
%OFA0B0*%
%FSLAX25Y25*%
%IPPOS*%
%LPD*%
%AMOC8*
5,1,8,0,0,1.08239X$1,22.5*
%
%ADD10C,0.00500*%
%ADD11C,0.00600*%
%ADD12R,0.00250X0.00250*%
%ADD13R,0.06000X0.00250*%
%ADD14R,0.10500X0.00250*%
%ADD15R,0.13750X0.00250*%
%ADD16R,0.16250X0.00250*%
%ADD17R,0.18250X0.00250*%
%ADD18R,0.20250X0.00250*%
%ADD19R,0.21750X0.00250*%
%ADD20R,0.23250X0.00250*%
%ADD21R,0.24500X0.00250*%
%ADD22R,0.26000X0.00250*%
%ADD23R,0.27000X0.00250*%
%ADD24R,0.28500X0.00250*%
%ADD25R,0.30000X0.00250*%
%ADD26R,0.30500X0.00250*%
%ADD27R,0.31500X0.00250*%
%ADD28R,0.33000X0.00250*%
%ADD29R,0.33500X0.00250*%
%ADD30R,0.34500X0.00250*%
%ADD31R,0.35500X0.00250*%
%ADD32R,0.36500X0.00250*%
%ADD33R,0.37000X0.00250*%
%ADD34R,0.38000X0.00250*%
%ADD35R,0.39000X0.00250*%
%ADD36R,0.39500X0.00250*%
%ADD37R,0.17750X0.00250*%
%ADD38R,0.00500X0.00250*%
%ADD39R,0.17500X0.00250*%
%ADD40R,0.15750X0.00250*%
%ADD41R,0.16000X0.00250*%
%ADD42R,0.14750X0.00250*%
%ADD43R,0.14500X0.00250*%
%ADD44R,0.13500X0.00250*%
%ADD45R,0.12750X0.00250*%
%ADD46R,0.13250X0.00250*%
%ADD47R,0.12250X0.00250*%
%ADD48R,0.11750X0.00250*%
%ADD49R,0.11500X0.00250*%
%ADD50R,0.11000X0.00250*%
%ADD51R,0.11250X0.00250*%
%ADD52R,0.10750X0.00250*%
%ADD53R,0.10250X0.00250*%
%ADD54R,0.10000X0.00250*%
%ADD55R,0.09750X0.00250*%
%ADD56R,0.09500X0.00250*%
%ADD57R,0.09250X0.00250*%
%ADD58R,0.09000X0.00250*%
%ADD59R,0.08750X0.00250*%
%ADD60R,0.08500X0.00250*%
%ADD61R,0.08250X0.00250*%
%ADD62R,0.08000X0.00250*%
%ADD63R,0.07750X0.00250*%
%ADD64R,0.07500X0.00250*%
%ADD65R,0.07250X0.00250*%
%ADD66R,0.07000X0.00250*%
%ADD67R,0.06750X0.00250*%
%ADD68R,0.06500X0.00250*%
%ADD69R,0.02750X0.00250*%
%ADD70R,0.06250X0.00250*%
%ADD71R,0.03500X0.00250*%
%ADD72R,0.04250X0.00250*%
%ADD73R,0.05000X0.00250*%
%ADD74R,0.05500X0.00250*%
%ADD75R,0.18000X0.00250*%
%ADD76R,0.12000X0.00250*%
%ADD77R,0.12500X0.00250*%
%ADD78R,0.05750X0.00250*%
%ADD79R,0.00750X0.00250*%
%ADD80R,0.13000X0.00250*%
%ADD81R,0.14250X0.00250*%
%ADD82R,0.15000X0.00250*%
%ADD83R,0.35750X0.00250*%
%ADD84R,0.33750X0.00250*%
%ADD85R,0.32750X0.00250*%
%ADD86R,0.31750X0.00250*%
%ADD87R,0.29500X0.00250*%
%ADD88R,0.24750X0.00250*%
D10*
X0023364Y0025089D02*
X0022780Y0025673D01*
X0022780Y0028009D01*
X0023364Y0028592D01*
X0025115Y0028592D01*
X0025115Y0025089D01*
X0023364Y0025089D01*
X0026463Y0025089D02*
X0026463Y0028592D01*
X0028798Y0028592D02*
X0026463Y0025089D01*
X0028798Y0025089D02*
X0028798Y0028592D01*
X0030146Y0028009D02*
X0030730Y0028592D01*
X0031898Y0028592D01*
X0032481Y0028009D01*
X0032481Y0025673D01*
X0031898Y0025089D01*
X0030730Y0025089D01*
X0030146Y0025673D01*
X0030146Y0026841D01*
X0031314Y0026841D01*
X0030730Y0035168D02*
X0031898Y0035168D01*
X0032481Y0035752D01*
X0031898Y0036920D02*
X0030730Y0036920D01*
X0030146Y0036336D01*
X0030146Y0035752D01*
X0030730Y0035168D01*
X0028798Y0035752D02*
X0028214Y0035168D01*
X0027047Y0035168D01*
X0026463Y0035752D01*
X0025115Y0035168D02*
X0022780Y0035168D01*
X0025115Y0035168D02*
X0025115Y0038671D01*
X0026463Y0038087D02*
X0027047Y0038671D01*
X0028214Y0038671D01*
X0028798Y0038087D01*
X0028798Y0035752D01*
X0030146Y0038087D02*
X0030730Y0038671D01*
X0031898Y0038671D01*
X0032481Y0038087D01*
X0032481Y0037503D01*
X0031898Y0036920D01*
X0028995Y0045129D02*
X0028995Y0048632D01*
X0026660Y0045129D01*
X0026660Y0048632D01*
X0025312Y0048048D02*
X0025312Y0045713D01*
X0024728Y0045129D01*
X0023560Y0045129D01*
X0022977Y0045713D01*
X0022977Y0048048D02*
X0023560Y0048632D01*
X0024728Y0048632D01*
X0025312Y0048048D01*
X0109101Y0048592D02*
X0109101Y0046257D01*
X0110269Y0045089D01*
X0111437Y0046257D01*
X0111437Y0048592D01*
X0112784Y0048009D02*
X0112784Y0047425D01*
X0113368Y0046841D01*
X0112784Y0046257D01*
X0112784Y0045673D01*
X0113368Y0045089D01*
X0114536Y0045089D01*
X0115120Y0045673D01*
X0116378Y0045673D02*
X0116378Y0045089D01*
X0116961Y0045089D01*
X0116961Y0045673D01*
X0116378Y0045673D01*
X0118309Y0045673D02*
X0118893Y0045089D01*
X0120061Y0045089D01*
X0120644Y0045673D01*
X0119477Y0046841D02*
X0118893Y0046841D01*
X0118309Y0046257D01*
X0118309Y0045673D01*
X0118893Y0046841D02*
X0118309Y0047425D01*
X0118309Y0048009D01*
X0118893Y0048592D01*
X0120061Y0048592D01*
X0120644Y0048009D01*
X0115120Y0048009D02*
X0114536Y0048592D01*
X0113368Y0048592D01*
X0112784Y0048009D01*
X0113368Y0046841D02*
X0113952Y0046841D01*
X0115210Y0038592D02*
X0116378Y0038592D01*
X0116961Y0038009D01*
X0116961Y0035673D01*
X0116378Y0035089D01*
X0115210Y0035089D01*
X0114626Y0035673D01*
X0114626Y0038009D02*
X0115210Y0038592D01*
X0118309Y0038592D02*
X0118309Y0035089D01*
X0120644Y0038592D01*
X0120644Y0035089D01*
X0119982Y0028514D02*
X0118814Y0028514D01*
X0118230Y0027930D01*
X0118814Y0026762D02*
X0118230Y0026178D01*
X0118230Y0025594D01*
X0118814Y0025011D01*
X0119982Y0025011D01*
X0120566Y0025594D01*
X0119982Y0026762D02*
X0118814Y0026762D01*
X0119982Y0026762D02*
X0120566Y0027346D01*
X0120566Y0027930D01*
X0119982Y0028514D01*
X0116883Y0028514D02*
X0115131Y0028514D01*
X0114547Y0027930D01*
X0114547Y0025594D01*
X0115131Y0025011D01*
X0116883Y0025011D01*
X0116883Y0028514D01*
X0113199Y0027346D02*
X0113199Y0025011D01*
X0113199Y0026762D02*
X0110864Y0026762D01*
X0110864Y0027346D02*
X0110864Y0025011D01*
X0110864Y0027346D02*
X0112032Y0028514D01*
X0113199Y0027346D01*
D11*
X0014300Y0021800D02*
X0011800Y0024300D01*
X0011800Y0029300D01*
X0014300Y0031800D01*
X0011800Y0034300D01*
X0011800Y0039300D01*
X0014300Y0041800D01*
X0011800Y0044300D01*
X0011800Y0049300D01*
X0014300Y0051800D01*
X0019300Y0051800D01*
X0021800Y0049300D01*
X0021800Y0044300D01*
X0019300Y0041800D01*
X0014300Y0041800D01*
X0019300Y0041800D02*
X0021800Y0039300D01*
X0021800Y0034300D01*
X0019300Y0031800D01*
X0014300Y0031800D01*
X0019300Y0031800D02*
X0021800Y0029300D01*
X0021800Y0024300D01*
X0019300Y0021800D01*
X0014300Y0021800D01*
X0121800Y0024300D02*
X0124300Y0021800D01*
X0129300Y0021800D01*
X0131800Y0024300D01*
X0131800Y0029300D01*
X0129300Y0031800D01*
X0131800Y0034300D01*
X0131800Y0039300D01*
X0129300Y0041800D01*
X0131800Y0044300D01*
X0131800Y0049300D01*
X0129300Y0051800D01*
X0124300Y0051800D01*
X0121800Y0049300D01*
X0121800Y0044300D01*
X0124300Y0041800D01*
X0121800Y0039300D01*
X0121800Y0034300D01*
X0124300Y0031800D01*
X0121800Y0029300D01*
X0121800Y0024300D01*
X0124300Y0031800D02*
X0129300Y0031800D01*
X0129300Y0041800D02*
X0124300Y0041800D01*
D12*
X0090509Y0064658D03*
X0076259Y0080658D03*
X0075759Y0080658D03*
X0074259Y0080908D03*
X0073759Y0080908D03*
X0073259Y0080908D03*
X0072759Y0080908D03*
X0070759Y0080908D03*
X0070259Y0080908D03*
X0069759Y0080908D03*
X0067509Y0080658D03*
X0063259Y0079658D03*
X0063509Y0086158D03*
X0068009Y0086908D03*
X0068509Y0086908D03*
X0075259Y0086908D03*
X0075759Y0086908D03*
X0077509Y0086658D03*
X0079009Y0086408D03*
X0080259Y0086158D03*
X0081259Y0085908D03*
X0054509Y0037908D03*
X0053259Y0037908D03*
X0066259Y0022158D03*
X0069509Y0021658D03*
X0071009Y0021658D03*
X0073009Y0021658D03*
X0073509Y0021658D03*
X0074009Y0021658D03*
X0076259Y0021908D03*
X0077509Y0022158D03*
X0080509Y0022908D03*
X0079009Y0016158D03*
X0077509Y0015908D03*
X0076009Y0015658D03*
X0075509Y0015658D03*
X0068009Y0015658D03*
X0066259Y0015908D03*
X0063509Y0016408D03*
D13*
X0071884Y0015658D03*
X0077884Y0037908D03*
X0077884Y0038158D03*
X0077884Y0038408D03*
X0077884Y0038658D03*
X0077884Y0038908D03*
X0077884Y0039158D03*
X0077884Y0039408D03*
X0077884Y0039658D03*
X0077884Y0039908D03*
X0077884Y0040158D03*
X0077884Y0040408D03*
X0077884Y0040658D03*
X0077884Y0040908D03*
X0077884Y0041158D03*
X0077884Y0041408D03*
X0077884Y0041658D03*
X0077884Y0041908D03*
X0077884Y0042158D03*
X0077884Y0042408D03*
X0077884Y0042658D03*
X0077884Y0042908D03*
X0077884Y0043158D03*
X0077884Y0043408D03*
X0077884Y0043658D03*
X0077884Y0043908D03*
X0077884Y0044158D03*
X0077884Y0044408D03*
X0077884Y0044658D03*
X0077884Y0044908D03*
X0077884Y0045158D03*
X0077884Y0045408D03*
X0077884Y0045658D03*
X0077884Y0045908D03*
X0077884Y0046158D03*
X0077884Y0046408D03*
X0077884Y0046658D03*
X0077884Y0046908D03*
X0077884Y0047158D03*
X0077884Y0047408D03*
X0077884Y0047658D03*
X0077884Y0047908D03*
X0077884Y0048158D03*
X0077884Y0048408D03*
X0077884Y0048658D03*
X0077884Y0048908D03*
X0077884Y0049158D03*
X0077884Y0049408D03*
X0089884Y0049158D03*
X0089884Y0048658D03*
X0089884Y0048158D03*
X0089884Y0047658D03*
X0089884Y0047158D03*
X0089884Y0046908D03*
X0089884Y0046408D03*
X0089884Y0045658D03*
X0089884Y0045158D03*
X0089884Y0044658D03*
X0089884Y0044158D03*
X0089884Y0043908D03*
X0089884Y0043408D03*
X0089884Y0042908D03*
X0089884Y0042408D03*
X0089884Y0041658D03*
X0089884Y0041158D03*
X0089884Y0040658D03*
X0089884Y0040158D03*
X0089884Y0039908D03*
X0089884Y0039408D03*
X0089884Y0038658D03*
X0089884Y0038158D03*
X0089884Y0037908D03*
X0103884Y0044408D03*
X0104134Y0045408D03*
X0104384Y0046908D03*
X0104384Y0047408D03*
X0104384Y0047658D03*
X0104384Y0048158D03*
X0104634Y0048908D03*
X0104634Y0049408D03*
X0104634Y0049908D03*
X0104634Y0050408D03*
X0104634Y0050658D03*
X0104634Y0050908D03*
X0104634Y0051158D03*
X0104634Y0051408D03*
X0104634Y0051658D03*
X0104634Y0051908D03*
X0104634Y0052408D03*
X0104634Y0052908D03*
X0104634Y0053408D03*
X0104634Y0053908D03*
X0104384Y0054408D03*
X0104384Y0054908D03*
X0104384Y0055908D03*
X0104134Y0056908D03*
X0104134Y0057158D03*
X0089884Y0056158D03*
X0089884Y0055658D03*
X0089884Y0055158D03*
X0089884Y0054658D03*
X0089884Y0054158D03*
X0089884Y0053908D03*
X0089884Y0053408D03*
X0089884Y0052658D03*
X0089884Y0052158D03*
X0089884Y0051658D03*
X0089884Y0051158D03*
X0089884Y0050658D03*
X0089884Y0050158D03*
X0089884Y0049658D03*
X0077884Y0060158D03*
X0077884Y0060408D03*
X0077884Y0060658D03*
X0077884Y0060908D03*
X0077884Y0061158D03*
X0077884Y0061408D03*
X0077884Y0061658D03*
X0077884Y0061908D03*
X0077884Y0062158D03*
X0077884Y0062408D03*
X0077884Y0062658D03*
X0077884Y0062908D03*
X0077884Y0063158D03*
X0077884Y0063408D03*
X0077884Y0063658D03*
X0077884Y0063908D03*
X0077884Y0064158D03*
X0077884Y0064408D03*
X0077884Y0064658D03*
X0065884Y0064658D03*
X0065884Y0064408D03*
X0065884Y0064158D03*
X0065884Y0063908D03*
X0065884Y0063658D03*
X0065884Y0063408D03*
X0065884Y0063158D03*
X0065884Y0062908D03*
X0065884Y0062658D03*
X0065884Y0062408D03*
X0065884Y0062158D03*
X0065884Y0061908D03*
X0065884Y0061658D03*
X0065884Y0061408D03*
X0065884Y0061158D03*
X0065884Y0060908D03*
X0065884Y0060658D03*
X0065884Y0060408D03*
X0065884Y0060158D03*
X0065884Y0059908D03*
X0065884Y0059658D03*
X0065884Y0059408D03*
X0065884Y0059158D03*
X0065884Y0058908D03*
X0065884Y0058658D03*
X0065884Y0058408D03*
X0065884Y0058158D03*
X0065884Y0057908D03*
X0065884Y0057658D03*
X0065884Y0057408D03*
X0065884Y0057158D03*
X0065884Y0056908D03*
X0065884Y0056658D03*
X0065884Y0056408D03*
X0065884Y0056158D03*
X0065884Y0055908D03*
X0065884Y0055658D03*
X0065884Y0055408D03*
X0065884Y0055158D03*
X0065884Y0054908D03*
X0065884Y0054658D03*
X0065884Y0054408D03*
X0065884Y0054158D03*
X0065884Y0053908D03*
X0065884Y0053658D03*
X0065884Y0053408D03*
X0065884Y0053158D03*
X0053884Y0053158D03*
X0053884Y0052658D03*
X0053884Y0052408D03*
X0053884Y0051908D03*
X0053884Y0051158D03*
X0053884Y0050908D03*
X0053884Y0050408D03*
X0053884Y0049908D03*
X0053884Y0049408D03*
X0053884Y0048908D03*
X0053884Y0048408D03*
X0053884Y0048158D03*
X0053884Y0047908D03*
X0053884Y0047158D03*
X0053884Y0046658D03*
X0053884Y0046408D03*
X0053884Y0053908D03*
X0053884Y0054408D03*
X0053884Y0054658D03*
X0053884Y0055158D03*
X0053884Y0055908D03*
X0053884Y0056408D03*
X0053884Y0056658D03*
X0053884Y0057158D03*
X0053884Y0057908D03*
X0053884Y0058408D03*
X0053884Y0058658D03*
X0053884Y0059408D03*
X0053884Y0059908D03*
X0053884Y0060408D03*
X0053884Y0060908D03*
X0053884Y0061158D03*
X0053884Y0061408D03*
X0053884Y0061908D03*
X0053884Y0062158D03*
X0053884Y0062908D03*
X0053884Y0063158D03*
X0053884Y0063908D03*
X0053884Y0064158D03*
X0053884Y0064658D03*
X0039634Y0057158D03*
X0039384Y0055908D03*
X0039384Y0055158D03*
X0039384Y0054908D03*
X0039384Y0054408D03*
X0039134Y0053658D03*
X0039134Y0053408D03*
X0039134Y0052908D03*
X0039134Y0052158D03*
X0039134Y0051908D03*
X0039134Y0051658D03*
X0039134Y0051408D03*
X0039134Y0051158D03*
X0039134Y0050908D03*
X0039134Y0050658D03*
X0039134Y0050408D03*
X0039134Y0049658D03*
X0039134Y0049408D03*
X0039134Y0048908D03*
X0039384Y0048158D03*
X0039384Y0047658D03*
X0039384Y0047408D03*
X0039384Y0046908D03*
X0039884Y0044408D03*
X0065884Y0042408D03*
X0065884Y0042158D03*
X0065884Y0041908D03*
X0065884Y0041658D03*
X0065884Y0041408D03*
X0065884Y0041158D03*
X0065884Y0040908D03*
X0065884Y0040658D03*
X0065884Y0040408D03*
X0065884Y0040158D03*
X0065884Y0039908D03*
X0065884Y0039658D03*
X0065884Y0039408D03*
X0065884Y0039158D03*
X0065884Y0038908D03*
X0065884Y0038658D03*
X0065884Y0038408D03*
X0065884Y0038158D03*
X0065884Y0037908D03*
X0071884Y0086908D03*
D14*
X0090884Y0077658D03*
X0087634Y0060908D03*
X0056134Y0041658D03*
X0052884Y0024908D03*
X0071884Y0015908D03*
X0090884Y0024908D03*
D15*
X0071759Y0016158D03*
X0057259Y0079908D03*
X0071759Y0086408D03*
X0086509Y0079908D03*
D16*
X0072009Y0016408D03*
D17*
X0072009Y0016658D03*
X0060009Y0046158D03*
X0083759Y0056408D03*
D18*
X0071759Y0085658D03*
X0072009Y0016908D03*
D19*
X0071759Y0017158D03*
X0072009Y0085408D03*
D20*
X0071759Y0085158D03*
X0072009Y0017408D03*
D21*
X0071884Y0017658D03*
D22*
X0071884Y0017908D03*
X0071884Y0084658D03*
D23*
X0071884Y0084408D03*
X0071884Y0018158D03*
D24*
X0071884Y0018408D03*
X0071884Y0084158D03*
D25*
X0071884Y0018658D03*
D26*
X0071884Y0018908D03*
X0071884Y0083658D03*
D27*
X0071884Y0019158D03*
D28*
X0071884Y0019408D03*
D29*
X0071884Y0019658D03*
D30*
X0071884Y0019908D03*
X0071884Y0082658D03*
D31*
X0071884Y0020158D03*
D32*
X0071884Y0020408D03*
X0071884Y0082158D03*
D33*
X0071884Y0081908D03*
X0071884Y0020658D03*
D34*
X0071884Y0020908D03*
X0071884Y0081658D03*
D35*
X0071884Y0081408D03*
X0071884Y0021158D03*
D36*
X0071884Y0021408D03*
X0071884Y0081158D03*
D37*
X0060509Y0080908D03*
X0083259Y0021658D03*
D38*
X0070134Y0021658D03*
X0053884Y0037908D03*
D39*
X0060384Y0021658D03*
X0083384Y0080908D03*
D40*
X0084509Y0080658D03*
X0059259Y0080658D03*
X0084509Y0021908D03*
D41*
X0059384Y0021908D03*
X0071884Y0086158D03*
D42*
X0085259Y0080408D03*
X0085259Y0022158D03*
X0058509Y0022158D03*
D43*
X0057884Y0022408D03*
X0085884Y0022408D03*
D44*
X0086634Y0022658D03*
X0057134Y0022658D03*
D45*
X0056009Y0023158D03*
X0087259Y0022908D03*
X0087759Y0023158D03*
X0056009Y0079408D03*
D46*
X0056509Y0022908D03*
D47*
X0055509Y0023408D03*
X0063509Y0046408D03*
X0064009Y0046658D03*
X0064259Y0046908D03*
X0064759Y0047158D03*
X0065259Y0047408D03*
X0065509Y0047658D03*
X0066009Y0047908D03*
X0066509Y0048158D03*
X0067009Y0048408D03*
X0067259Y0048658D03*
X0067759Y0048908D03*
X0068259Y0049158D03*
X0068509Y0049408D03*
X0076009Y0053658D03*
X0076509Y0053908D03*
X0076759Y0054158D03*
X0077759Y0054658D03*
X0078259Y0054908D03*
X0078509Y0055158D03*
X0079009Y0055408D03*
X0079509Y0055658D03*
X0080009Y0055908D03*
X0080259Y0056158D03*
X0088259Y0079158D03*
X0055509Y0079158D03*
X0088259Y0023408D03*
D48*
X0088759Y0023658D03*
X0056759Y0042408D03*
X0054509Y0023908D03*
X0055009Y0023658D03*
X0087009Y0060158D03*
X0089259Y0078658D03*
X0088759Y0078908D03*
X0055009Y0078908D03*
D49*
X0054634Y0078658D03*
X0089634Y0078408D03*
X0089634Y0024158D03*
X0089134Y0023908D03*
X0054134Y0024158D03*
D50*
X0090134Y0024408D03*
X0090384Y0024658D03*
X0087384Y0060658D03*
X0090384Y0077908D03*
X0090134Y0078158D03*
X0053634Y0078158D03*
X0053384Y0077908D03*
D51*
X0054009Y0078408D03*
X0087259Y0060408D03*
X0056509Y0042158D03*
X0053759Y0024408D03*
D52*
X0053259Y0024658D03*
X0056259Y0041908D03*
X0053009Y0077658D03*
X0071759Y0086658D03*
D53*
X0052509Y0077408D03*
X0052259Y0077158D03*
X0091259Y0077408D03*
X0091509Y0077158D03*
X0091509Y0025408D03*
X0091259Y0025158D03*
X0052509Y0025158D03*
X0052259Y0025408D03*
D54*
X0051884Y0025658D03*
X0055884Y0041408D03*
X0087884Y0061158D03*
X0091884Y0076908D03*
X0051884Y0076908D03*
X0091884Y0025658D03*
D55*
X0092259Y0025908D03*
X0092509Y0026158D03*
X0051509Y0025908D03*
X0051259Y0026158D03*
X0051259Y0076408D03*
X0051509Y0076658D03*
X0092259Y0076658D03*
X0092509Y0076408D03*
D56*
X0092884Y0076158D03*
X0093134Y0075908D03*
X0088134Y0061408D03*
X0055634Y0041158D03*
X0050634Y0026658D03*
X0050884Y0026408D03*
X0092884Y0026408D03*
X0093134Y0026658D03*
X0050634Y0075908D03*
X0050884Y0076158D03*
D57*
X0050259Y0075658D03*
X0050009Y0075408D03*
X0088259Y0061658D03*
X0093759Y0075408D03*
X0093509Y0075658D03*
X0055509Y0040908D03*
X0050009Y0027158D03*
X0050259Y0026908D03*
X0093509Y0026908D03*
X0093759Y0027158D03*
D58*
X0094134Y0027408D03*
X0094384Y0027658D03*
X0094634Y0027908D03*
X0049384Y0027658D03*
X0049134Y0027908D03*
X0048884Y0028158D03*
X0048884Y0074408D03*
X0049134Y0074658D03*
X0049384Y0074908D03*
X0049634Y0075158D03*
X0094134Y0075158D03*
X0094384Y0074908D03*
X0094634Y0074658D03*
D59*
X0094759Y0074408D03*
X0088509Y0061908D03*
X0055259Y0040658D03*
X0049759Y0027408D03*
X0094759Y0028158D03*
D60*
X0095134Y0028408D03*
X0095384Y0028658D03*
X0095634Y0028908D03*
X0095884Y0029158D03*
X0048634Y0028408D03*
X0048384Y0028658D03*
X0048134Y0028908D03*
X0047884Y0029158D03*
X0047884Y0073408D03*
X0048134Y0073658D03*
X0048384Y0073908D03*
X0048634Y0074158D03*
X0095134Y0074158D03*
X0095384Y0073908D03*
X0095634Y0073658D03*
X0095884Y0073408D03*
D61*
X0096009Y0073158D03*
X0096259Y0072908D03*
X0096759Y0072408D03*
X0088759Y0062158D03*
X0055009Y0040408D03*
X0046759Y0030408D03*
X0047259Y0029908D03*
X0047509Y0029658D03*
X0047759Y0029408D03*
X0096009Y0029408D03*
X0096259Y0029658D03*
X0096509Y0029908D03*
X0047009Y0072408D03*
X0047259Y0072658D03*
X0047509Y0072908D03*
X0047759Y0073158D03*
D62*
X0046884Y0072158D03*
X0046634Y0071908D03*
X0046384Y0071658D03*
X0096634Y0072658D03*
X0096884Y0072158D03*
X0097134Y0071908D03*
X0097384Y0071658D03*
X0097634Y0071408D03*
X0097634Y0031158D03*
X0097384Y0030908D03*
X0097134Y0030658D03*
X0096884Y0030408D03*
X0096884Y0030158D03*
X0047134Y0030158D03*
X0046634Y0030658D03*
X0046384Y0030908D03*
X0046134Y0031158D03*
D63*
X0046009Y0031408D03*
X0045759Y0031658D03*
X0045509Y0031908D03*
X0054759Y0040158D03*
X0089009Y0062408D03*
X0097759Y0071158D03*
X0098009Y0070908D03*
X0098259Y0070658D03*
X0046009Y0071158D03*
X0046009Y0071408D03*
X0045759Y0070908D03*
X0045509Y0070658D03*
X0097759Y0031408D03*
X0098009Y0031658D03*
X0098259Y0031908D03*
D64*
X0098384Y0032158D03*
X0098634Y0032408D03*
X0098634Y0032658D03*
X0098884Y0032908D03*
X0099134Y0033158D03*
X0089134Y0062658D03*
X0098634Y0069908D03*
X0098634Y0070158D03*
X0098384Y0070408D03*
X0098884Y0069658D03*
X0099134Y0069408D03*
X0045384Y0070408D03*
X0045134Y0070158D03*
X0045134Y0069908D03*
X0044884Y0069658D03*
X0044634Y0069408D03*
X0044384Y0033658D03*
X0044634Y0033158D03*
X0044884Y0032908D03*
X0045134Y0032658D03*
X0045134Y0032408D03*
X0045384Y0032158D03*
D65*
X0044509Y0033408D03*
X0044259Y0033908D03*
X0044009Y0034158D03*
X0043759Y0034658D03*
X0043259Y0035408D03*
X0054759Y0039908D03*
X0043759Y0067908D03*
X0043759Y0068158D03*
X0044009Y0068408D03*
X0044259Y0068658D03*
X0044259Y0068908D03*
X0044509Y0069158D03*
X0099259Y0069158D03*
X0099509Y0068908D03*
X0099509Y0068658D03*
X0099759Y0068408D03*
X0100009Y0067908D03*
X0100259Y0067658D03*
X0100009Y0034658D03*
X0099759Y0034158D03*
X0099509Y0033908D03*
X0099509Y0033658D03*
X0099259Y0033408D03*
D66*
X0099884Y0034408D03*
X0100134Y0034908D03*
X0100384Y0035158D03*
X0100384Y0035408D03*
X0100634Y0035658D03*
X0100884Y0035908D03*
X0100884Y0036158D03*
X0101134Y0036658D03*
X0101134Y0065908D03*
X0101134Y0066158D03*
X0100884Y0066408D03*
X0100634Y0066908D03*
X0100384Y0067158D03*
X0100384Y0067408D03*
X0099884Y0068158D03*
X0043634Y0067658D03*
X0043384Y0067408D03*
X0043384Y0067158D03*
X0043134Y0066908D03*
X0042884Y0066408D03*
X0042634Y0066158D03*
X0042634Y0065908D03*
X0041884Y0064408D03*
X0041884Y0038158D03*
X0042634Y0036658D03*
X0042884Y0036158D03*
X0042884Y0035908D03*
X0043134Y0035658D03*
X0043384Y0035158D03*
X0043634Y0034908D03*
X0043884Y0034408D03*
D67*
X0042759Y0036408D03*
X0042509Y0036908D03*
X0042259Y0037158D03*
X0042259Y0037408D03*
X0042009Y0037908D03*
X0041759Y0038408D03*
X0054509Y0039658D03*
X0041759Y0063908D03*
X0041759Y0064158D03*
X0042009Y0064658D03*
X0042259Y0065158D03*
X0042259Y0065408D03*
X0042509Y0065658D03*
X0043009Y0066658D03*
X0089259Y0062908D03*
X0100759Y0066658D03*
X0101259Y0065658D03*
X0101509Y0065408D03*
X0101509Y0065158D03*
X0101759Y0064908D03*
X0101759Y0064658D03*
X0101759Y0064408D03*
X0102009Y0064158D03*
X0102509Y0039658D03*
X0102259Y0039158D03*
X0102009Y0038408D03*
X0102009Y0038158D03*
X0101759Y0037908D03*
X0101509Y0037658D03*
X0101509Y0037408D03*
X0101259Y0036908D03*
X0101009Y0036408D03*
D68*
X0101384Y0037158D03*
X0102134Y0038658D03*
X0102134Y0038908D03*
X0102384Y0039408D03*
X0102634Y0039908D03*
X0102634Y0040158D03*
X0102884Y0040658D03*
X0102884Y0040908D03*
X0102884Y0041158D03*
X0103134Y0041408D03*
X0103384Y0041908D03*
X0103384Y0042408D03*
X0103634Y0042908D03*
X0103634Y0043408D03*
X0103884Y0044158D03*
X0103884Y0058158D03*
X0103634Y0059408D03*
X0103384Y0059908D03*
X0103384Y0060408D03*
X0103134Y0061158D03*
X0102884Y0061658D03*
X0102884Y0061908D03*
X0102884Y0062158D03*
X0102634Y0062408D03*
X0102634Y0062658D03*
X0102384Y0062908D03*
X0102384Y0063158D03*
X0102384Y0063408D03*
X0102134Y0063658D03*
X0102134Y0063908D03*
X0042134Y0064908D03*
X0041634Y0063658D03*
X0041384Y0063408D03*
X0041384Y0063158D03*
X0041384Y0062908D03*
X0041134Y0062658D03*
X0041134Y0062408D03*
X0040884Y0062158D03*
X0040884Y0061908D03*
X0040884Y0061658D03*
X0040634Y0061158D03*
X0040384Y0060408D03*
X0040384Y0059908D03*
X0040134Y0059658D03*
X0039384Y0047158D03*
X0039884Y0044158D03*
X0040384Y0042658D03*
X0040384Y0041908D03*
X0040634Y0041658D03*
X0040634Y0041408D03*
X0040884Y0040908D03*
X0040884Y0040658D03*
X0041134Y0040158D03*
X0041134Y0039908D03*
X0041384Y0039658D03*
X0041384Y0039408D03*
X0041384Y0039158D03*
X0041634Y0038908D03*
X0041634Y0038658D03*
X0042134Y0037658D03*
D69*
X0053759Y0038158D03*
X0089759Y0064408D03*
D70*
X0089509Y0063158D03*
X0089759Y0055908D03*
X0089759Y0055408D03*
X0089759Y0054908D03*
X0089759Y0054408D03*
X0089759Y0053658D03*
X0089759Y0053158D03*
X0089759Y0052908D03*
X0089759Y0052408D03*
X0089759Y0051908D03*
X0089759Y0051408D03*
X0089759Y0050908D03*
X0089759Y0050408D03*
X0089759Y0049908D03*
X0089759Y0049408D03*
X0089759Y0048908D03*
X0089759Y0048408D03*
X0089759Y0047908D03*
X0089759Y0047408D03*
X0089759Y0046658D03*
X0089759Y0046158D03*
X0089759Y0045908D03*
X0089759Y0045408D03*
X0089759Y0044908D03*
X0089759Y0044408D03*
X0089759Y0043658D03*
X0089759Y0043158D03*
X0089759Y0042658D03*
X0089759Y0042158D03*
X0089759Y0041908D03*
X0089759Y0041408D03*
X0089759Y0040908D03*
X0089759Y0040408D03*
X0089759Y0039658D03*
X0089759Y0039158D03*
X0089759Y0038908D03*
X0089759Y0038408D03*
X0102759Y0040408D03*
X0103259Y0041658D03*
X0103259Y0042158D03*
X0103509Y0042658D03*
X0103509Y0043158D03*
X0103759Y0043658D03*
X0103759Y0043908D03*
X0104009Y0044658D03*
X0104009Y0044908D03*
X0104009Y0045158D03*
X0104009Y0045658D03*
X0104259Y0045908D03*
X0104259Y0046158D03*
X0104259Y0046408D03*
X0104259Y0046658D03*
X0104509Y0047158D03*
X0104509Y0047908D03*
X0104509Y0048408D03*
X0104509Y0048658D03*
X0104509Y0049158D03*
X0104509Y0049658D03*
X0104509Y0050158D03*
X0104509Y0052158D03*
X0104509Y0052658D03*
X0104509Y0053158D03*
X0104509Y0053658D03*
X0104509Y0054158D03*
X0104509Y0054658D03*
X0104509Y0055158D03*
X0104259Y0055408D03*
X0104259Y0055658D03*
X0104259Y0056158D03*
X0104259Y0056408D03*
X0104259Y0056658D03*
X0104009Y0057408D03*
X0104009Y0057658D03*
X0104009Y0057908D03*
X0103759Y0058408D03*
X0103759Y0058658D03*
X0103759Y0058908D03*
X0103759Y0059158D03*
X0103509Y0059658D03*
X0103509Y0060158D03*
X0103259Y0060658D03*
X0103259Y0060908D03*
X0103009Y0061408D03*
X0054009Y0061658D03*
X0054009Y0062408D03*
X0054009Y0062658D03*
X0054009Y0063408D03*
X0054009Y0063658D03*
X0054009Y0064408D03*
X0054009Y0060658D03*
X0054009Y0060158D03*
X0054009Y0059658D03*
X0054009Y0059158D03*
X0054009Y0058908D03*
X0054009Y0058158D03*
X0054009Y0057658D03*
X0054009Y0057408D03*
X0054009Y0056908D03*
X0054009Y0056158D03*
X0054009Y0055658D03*
X0054009Y0055408D03*
X0054009Y0054908D03*
X0054009Y0054158D03*
X0054009Y0053658D03*
X0054009Y0053408D03*
X0054009Y0052908D03*
X0054009Y0052158D03*
X0054009Y0051658D03*
X0054009Y0051408D03*
X0054009Y0050658D03*
X0054009Y0050158D03*
X0054009Y0049658D03*
X0054009Y0049158D03*
X0054009Y0048658D03*
X0054009Y0047658D03*
X0054009Y0047408D03*
X0054009Y0046908D03*
X0054259Y0039408D03*
X0041009Y0040408D03*
X0040759Y0041158D03*
X0040509Y0042158D03*
X0040259Y0042408D03*
X0040259Y0042908D03*
X0040259Y0043158D03*
X0040009Y0043408D03*
X0040009Y0043658D03*
X0040009Y0043908D03*
X0039759Y0044658D03*
X0039759Y0044908D03*
X0039759Y0045158D03*
X0039509Y0045408D03*
X0039759Y0045658D03*
X0039509Y0045908D03*
X0039509Y0046158D03*
X0039509Y0046408D03*
X0039509Y0046658D03*
X0039259Y0047908D03*
X0039259Y0048408D03*
X0039259Y0048658D03*
X0039259Y0049158D03*
X0039259Y0049908D03*
X0039259Y0050158D03*
X0039259Y0052408D03*
X0039259Y0052658D03*
X0039259Y0053158D03*
X0039259Y0053908D03*
X0039259Y0054158D03*
X0039259Y0054658D03*
X0039259Y0055408D03*
X0039509Y0055658D03*
X0039509Y0056158D03*
X0039509Y0056408D03*
X0039509Y0056658D03*
X0039759Y0056908D03*
X0039759Y0057408D03*
X0039759Y0057658D03*
X0039759Y0057908D03*
X0039759Y0058158D03*
X0040009Y0058408D03*
X0040009Y0058658D03*
X0040009Y0058908D03*
X0040009Y0059158D03*
X0040259Y0059408D03*
X0040259Y0060158D03*
X0040509Y0060658D03*
X0040509Y0060908D03*
X0040759Y0061408D03*
D71*
X0053884Y0038408D03*
X0089884Y0064158D03*
D72*
X0089759Y0063908D03*
X0054009Y0038658D03*
D73*
X0054134Y0038908D03*
X0089634Y0063658D03*
D74*
X0054134Y0039158D03*
D75*
X0059884Y0042658D03*
X0059884Y0042908D03*
X0059884Y0043158D03*
X0059884Y0043408D03*
X0059884Y0043658D03*
X0059884Y0043908D03*
X0059884Y0044158D03*
X0059884Y0044408D03*
X0059884Y0044658D03*
X0059884Y0044908D03*
X0059884Y0045158D03*
X0059884Y0045408D03*
X0059884Y0045658D03*
X0059884Y0045908D03*
X0071884Y0049658D03*
X0071884Y0049908D03*
X0071884Y0050158D03*
X0071884Y0050408D03*
X0071884Y0050658D03*
X0071884Y0050908D03*
X0071884Y0051158D03*
X0071884Y0051408D03*
X0071884Y0051658D03*
X0071884Y0051908D03*
X0071884Y0052158D03*
X0071884Y0052408D03*
X0071884Y0052658D03*
X0071884Y0052908D03*
X0083884Y0056658D03*
X0083884Y0056908D03*
X0083884Y0057158D03*
X0083884Y0057408D03*
X0083884Y0057658D03*
X0083884Y0057908D03*
X0083884Y0058158D03*
X0083884Y0058408D03*
X0083884Y0058658D03*
X0083884Y0058908D03*
X0083884Y0059158D03*
X0083884Y0059408D03*
X0083884Y0059658D03*
X0083884Y0059908D03*
X0071884Y0085908D03*
D76*
X0075134Y0053158D03*
D77*
X0075634Y0053408D03*
X0077134Y0054408D03*
X0087884Y0079408D03*
D78*
X0089509Y0063408D03*
D79*
X0089759Y0064658D03*
D80*
X0087134Y0079658D03*
X0056384Y0079658D03*
D81*
X0057759Y0080158D03*
X0086009Y0080158D03*
D82*
X0058634Y0080408D03*
D83*
X0071759Y0082408D03*
D84*
X0072009Y0082908D03*
D85*
X0072009Y0083158D03*
D86*
X0071759Y0083408D03*
D87*
X0071884Y0083908D03*
D88*
X0071759Y0084908D03*
M02*
